<svg width="803" height="483" viewBox="0 0 803 483" fill="none" xmlns="http://www.w3.org/2000/svg">
<path d="M336.796 476.569H330.91V482.455H336.796V476.569Z" fill="#D3D3ED"/>
<path d="M326.462 476.569H320.576V482.455H326.462V476.569Z" fill="#D3D3ED"/>
<path d="M326.462 466.215H320.576V472.102H326.462V466.215Z" fill="#D3D3ED"/>
<path d="M316.108 466.215H310.222V472.102H316.108V466.215Z" fill="#D3D3ED"/>
<path d="M336.796 455.862H330.91V461.748H336.796V455.862Z" fill="#D3D3ED"/>
<path d="M326.462 455.862H320.576V461.748H326.462V455.862Z" fill="#D3D3ED"/>
<path d="M316.108 455.862H310.222V461.748H316.108V455.862Z" fill="#D3D3ED"/>
<path d="M336.796 445.489H330.91V451.375H336.796V445.489Z" fill="#D3D3ED"/>
<path d="M326.462 445.489H320.576V451.375H326.462V445.489Z" fill="#D3D3ED"/>
<path d="M347.131 435.135H341.245V441.022H347.131V435.135Z" fill="#D3D3ED"/>
<path d="M336.796 435.135H330.91V441.022H336.796V435.135Z" fill="#D3D3ED"/>
<path d="M326.462 435.135H320.576V441.022H326.462V435.135Z" fill="#D3D3ED"/>
<path d="M367.819 424.763H361.933V430.649H367.819V424.763Z" fill="#D3D3ED"/>
<path d="M357.484 424.763H351.598V430.649H357.484V424.763Z" fill="#D3D3ED"/>
<path d="M347.131 424.763H341.245V430.649H347.131V424.763Z" fill="#D3D3ED"/>
<path d="M336.796 424.763H330.91V430.649H336.796V424.763Z" fill="#D3D3ED"/>
<path d="M326.462 424.763H320.576V430.649H326.462V424.763Z" fill="#D3D3ED"/>
<path d="M378.153 414.409H372.267V420.296H378.153V414.409Z" fill="#D3D3ED"/>
<path d="M367.819 414.409H361.933V420.295H367.819V414.409Z" fill="#D3D3ED"/>
<path d="M357.484 414.409H351.598V420.296H357.484V414.409Z" fill="#D3D3ED"/>
<path d="M347.131 414.409H341.245V420.296H347.131V414.409Z" fill="#D3D3ED"/>
<path d="M336.796 414.409H330.91V420.296H336.796V414.409Z" fill="#D3D3ED"/>
<path d="M326.462 414.409H320.576V420.296H326.462V414.409Z" fill="#D3D3ED"/>
<path d="M667.706 404.056H661.82V409.942H667.706V404.056Z" fill="#D3D3ED"/>
<path d="M657.372 404.056H651.486V409.942H657.372V404.056Z" fill="#D3D3ED"/>
<path d="M647.018 404.056H641.132V409.942H647.018V404.056Z" fill="#D3D3ED"/>
<path d="M388.506 404.056H382.62V409.942H388.506V404.056Z" fill="#D3D3ED"/>
<path d="M378.153 404.056H372.267V409.942H378.153V404.056Z" fill="#D3D3ED"/>
<path d="M367.819 404.056H361.933V409.942H367.819V404.056Z" fill="#D3D3ED"/>
<path d="M357.484 404.056H351.598V409.942H357.484V404.056Z" fill="#D3D3ED"/>
<path d="M347.131 404.056H341.245V409.942H347.131V404.056Z" fill="#D3D3ED"/>
<path d="M336.796 404.056H330.91V409.942H336.796V404.056Z" fill="#D3D3ED"/>
<path d="M326.462 404.056H320.576V409.942H326.462V404.056Z" fill="#D3D3ED"/>
<path d="M678.041 393.683H672.155V399.569H678.041V393.683Z" fill="#D3D3ED"/>
<path d="M667.706 393.683H661.82V399.569H667.706V393.683Z" fill="#D3D3ED"/>
<path d="M657.372 393.683H651.486V399.569H657.372V393.683Z" fill="#D3D3ED"/>
<path d="M647.018 393.683H641.132V399.569H647.018V393.683Z" fill="#D3D3ED"/>
<path d="M636.684 393.683H630.798V399.569H636.684V393.683Z" fill="#D3D3ED"/>
<path d="M398.841 393.683H392.955V399.569H398.841V393.683Z" fill="#D3D3ED"/>
<path d="M388.506 393.683H382.62V399.569H388.506V393.683Z" fill="#D3D3ED"/>
<path d="M378.153 393.683H372.267V399.569H378.153V393.683Z" fill="#D3D3ED"/>
<path d="M367.819 393.683H361.933V399.569H367.819V393.683Z" fill="#D3D3ED"/>
<path d="M357.484 393.683H351.598V399.569H357.484V393.683Z" fill="#D3D3ED"/>
<path d="M347.131 393.683H341.245V399.569H347.131V393.683Z" fill="#D3D3ED"/>
<path d="M336.796 393.683H330.91V399.569H336.796V393.683Z" fill="#D3D3ED"/>
<path d="M678.041 383.329H672.155V389.216H678.041V383.329Z" fill="#D3D3ED"/>
<path d="M667.706 383.329H661.82V389.216H667.706V383.329Z" fill="#D3D3ED"/>
<path d="M657.372 383.329H651.486V389.216H657.372V383.329Z" fill="#D3D3ED"/>
<path d="M647.018 383.329H641.132V389.216H647.018V383.329Z" fill="#D3D3ED"/>
<path d="M636.684 383.329H630.798V389.216H636.684V383.329Z" fill="#D3D3ED"/>
<path d="M398.841 383.329H392.955V389.216H398.841V383.329Z" fill="#D3D3ED"/>
<path d="M388.506 383.329H382.62V389.216H388.506V383.329Z" fill="#D3D3ED"/>
<path d="M378.153 383.329H372.267V389.216H378.153V383.329Z" fill="#D3D3ED"/>
<path d="M367.819 383.329H361.933V389.216H367.819V383.329Z" fill="#D3D3ED"/>
<path d="M357.484 383.329H351.598V389.216H357.484V383.329Z" fill="#D3D3ED"/>
<path d="M347.131 383.329H341.245V389.216H347.131V383.329Z" fill="#D3D3ED"/>
<path d="M336.796 383.329H330.91V389.216H336.796V383.329Z" fill="#D3D3ED"/>
<path d="M729.751 372.976H723.865V378.862H729.751V372.976Z" fill="#D3D3ED"/>
<path d="M688.394 372.976H682.508V378.862H688.394V372.976Z" fill="#D3D3ED"/>
<path d="M678.041 372.976H672.155V378.862H678.041V372.976Z" fill="#D3D3ED"/>
<path d="M667.706 372.976H661.82V378.862H667.706V372.976Z" fill="#D3D3ED"/>
<path d="M657.372 372.976H651.486V378.862H657.372V372.976Z" fill="#D3D3ED"/>
<path d="M647.018 372.976H641.132V378.862H647.018V372.976Z" fill="#D3D3ED"/>
<path d="M636.684 372.976H630.798V378.862H636.684V372.976Z" fill="#D3D3ED"/>
<path d="M409.175 372.976H403.289V378.862H409.175V372.976Z" fill="#D3D3ED"/>
<path d="M398.841 372.976H392.955V378.862H398.841V372.976Z" fill="#D3D3ED"/>
<path d="M388.506 372.976H382.62V378.862H388.506V372.976Z" fill="#D3D3ED"/>
<path d="M378.153 372.976H372.267V378.862H378.153V372.976Z" fill="#D3D3ED"/>
<path d="M367.819 372.976H361.933V378.862H367.819V372.976Z" fill="#D3D3ED"/>
<path d="M357.484 372.976H351.598V378.862H357.484V372.976Z" fill="#D3D3ED"/>
<path d="M347.131 372.976H341.245V378.862H347.131V372.976Z" fill="#D3D3ED"/>
<path d="M336.796 372.976H330.91V378.862H336.796V372.976Z" fill="#D3D3ED"/>
<path d="M729.751 362.603H723.865V368.489H729.751V362.603Z" fill="#D3D3ED"/>
<path d="M688.394 362.603H682.508V368.489H688.394V362.603Z" fill="#D3D3ED"/>
<path d="M678.041 362.603H672.155V368.489H678.041V362.603Z" fill="#D3D3ED"/>
<path d="M667.706 362.603H661.82V368.489H667.706V362.603Z" fill="#D3D3ED"/>
<path d="M657.372 362.603H651.486V368.489H657.372V362.603Z" fill="#D3D3ED"/>
<path d="M647.018 362.603H641.132V368.489H647.018V362.603Z" fill="#D3D3ED"/>
<path d="M636.684 362.603H630.798V368.489H636.684V362.603Z" fill="#D3D3ED"/>
<path d="M626.35 362.603H620.464V368.489H626.35V362.603Z" fill="#D3D3ED"/>
<path d="M429.863 362.603H423.977V368.489H429.863V362.603Z" fill="#D3D3ED"/>
<path d="M419.528 362.603H413.642V368.489H419.528V362.603Z" fill="#D3D3ED"/>
<path d="M409.175 362.603H403.289V368.489H409.175V362.603Z" fill="#D3D3ED"/>
<path d="M398.841 362.603H392.955V368.489H398.841V362.603Z" fill="#D3D3ED"/>
<path d="M388.506 362.603H382.62V368.489H388.506V362.603Z" fill="#D3D3ED"/>
<path d="M378.153 362.603H372.267V368.489H378.153V362.603Z" fill="#D3D3ED"/>
<path d="M367.819 362.603H361.933V368.489H367.819V362.603Z" fill="#D3D3ED"/>
<path d="M357.484 362.603H351.598V368.489H357.484V362.603Z" fill="#D3D3ED"/>
<path d="M347.131 362.603H341.245V368.489H347.131V362.603Z" fill="#D3D3ED"/>
<path d="M336.796 362.603H330.91V368.489H336.796V362.603Z" fill="#D3D3ED"/>
<path d="M740.085 352.25H734.199V358.136H740.085V352.25Z" fill="#D3D3ED"/>
<path d="M729.751 352.25H723.865V358.136H729.751V352.25Z" fill="#D3D3ED"/>
<path d="M698.729 352.25H692.842V358.136H698.729V352.25Z" fill="#D3D3ED"/>
<path d="M688.394 352.25H682.508V358.136H688.394V352.25Z" fill="#D3D3ED"/>
<path d="M678.041 352.25H672.155V358.136H678.041V352.25Z" fill="#D3D3ED"/>
<path d="M667.706 352.25H661.82V358.136H667.706V352.25Z" fill="#D3D3ED"/>
<path d="M657.372 352.25H651.486V358.136H657.372V352.25Z" fill="#D3D3ED"/>
<path d="M647.018 352.25H641.132V358.136H647.018V352.25Z" fill="#D3D3ED"/>
<path d="M636.684 352.25H630.798V358.136H636.684V352.25Z" fill="#D3D3ED"/>
<path d="M626.35 352.25H620.464V358.136H626.35V352.25Z" fill="#D3D3ED"/>
<path d="M615.997 352.25H610.11V358.136H615.997V352.25Z" fill="#D3D3ED"/>
<path d="M429.863 352.25H423.977V358.136H429.863V352.25Z" fill="#D3D3ED"/>
<path d="M419.528 352.25H413.642V358.136H419.528V352.25Z" fill="#D3D3ED"/>
<path d="M409.175 352.25H403.289V358.136H409.175V352.25Z" fill="#D3D3ED"/>
<path d="M398.841 352.25H392.955V358.136H398.841V352.25Z" fill="#D3D3ED"/>
<path d="M388.506 352.25H382.62V358.136H388.506V352.25Z" fill="#D3D3ED"/>
<path d="M378.153 352.25H372.267V358.136H378.153V352.25Z" fill="#D3D3ED"/>
<path d="M367.819 352.25H361.933V358.136H367.819V352.25Z" fill="#D3D3ED"/>
<path d="M357.484 352.25H351.598V358.136H357.484V352.25Z" fill="#D3D3ED"/>
<path d="M347.131 352.25H341.245V358.136H347.131V352.25Z" fill="#D3D3ED"/>
<path d="M336.796 352.25H330.91V358.136H336.796V352.25Z" fill="#D3D3ED"/>
<path d="M740.085 341.896H734.199V347.783H740.085V341.896Z" fill="#D3D3ED"/>
<path d="M709.063 341.896H703.177V347.783H709.063V341.896Z" fill="#D3D3ED"/>
<path d="M698.729 341.896H692.842V347.783H698.729V341.896Z" fill="#D3D3ED"/>
<path d="M688.394 341.896H682.508V347.783H688.394V341.896Z" fill="#D3D3ED"/>
<path d="M678.041 341.896H672.155V347.783H678.041V341.896Z" fill="#D3D3ED"/>
<path d="M667.706 341.896H661.82V347.783H667.706V341.896Z" fill="#D3D3ED"/>
<path d="M657.372 341.896H651.486V347.783H657.372V341.896Z" fill="#D3D3ED"/>
<path d="M647.018 341.896H641.132V347.783H647.018V341.896Z" fill="#D3D3ED"/>
<path d="M636.684 341.896H630.798V347.783H636.684V341.896Z" fill="#D3D3ED"/>
<path d="M626.35 341.896H620.464V347.783H626.35V341.896Z" fill="#D3D3ED"/>
<path d="M615.997 341.896H610.11V347.783H615.997V341.896Z" fill="#D3D3ED"/>
<path d="M429.863 341.896H423.977V347.783H429.863V341.896Z" fill="#D3D3ED"/>
<path d="M419.528 341.896H413.642V347.783H419.528V341.896Z" fill="#D3D3ED"/>
<path d="M409.175 341.896H403.289V347.783H409.175V341.896Z" fill="#D3D3ED"/>
<path d="M398.841 341.896H392.955V347.783H398.841V341.896Z" fill="#D3D3ED"/>
<path d="M388.506 341.896H382.62V347.783H388.506V341.896Z" fill="#D3D3ED"/>
<path d="M378.153 341.896H372.267V347.783H378.153V341.896Z" fill="#D3D3ED"/>
<path d="M367.819 341.896H361.933V347.783H367.819V341.896Z" fill="#D3D3ED"/>
<path d="M357.484 341.896H351.598V347.783H357.484V341.896Z" fill="#D3D3ED"/>
<path d="M347.131 341.896H341.245V347.783H347.131V341.896Z" fill="#D3D3ED"/>
<path d="M336.796 341.896H330.91V347.783H336.796V341.896Z" fill="#D3D3ED"/>
<path d="M326.462 341.896H320.576V347.783H326.462V341.896Z" fill="#D3D3ED"/>
<path d="M316.108 341.896H310.222V347.783H316.108V341.896Z" fill="#D3D3ED"/>
<path d="M709.063 331.524H703.177V337.41H709.063V331.524Z" fill="#D3D3ED"/>
<path d="M698.729 331.524H692.842V337.41H698.729V331.524Z" fill="#D3D3ED"/>
<path d="M688.394 331.524H682.508V337.41H688.394V331.524Z" fill="#D3D3ED"/>
<path d="M678.041 331.524H672.155V337.41H678.041V331.524Z" fill="#D3D3ED"/>
<path d="M667.706 331.524H661.82V337.41H667.706V331.524Z" fill="#D3D3ED"/>
<path d="M657.372 331.524H651.486V337.41H657.372V331.524Z" fill="#D3D3ED"/>
<path d="M647.018 331.524H641.132V337.41H647.018V331.524Z" fill="#D3D3ED"/>
<path d="M636.684 331.524H630.798V337.41H636.684V331.524Z" fill="#D3D3ED"/>
<path d="M626.35 331.524H620.464V337.41H626.35V331.524Z" fill="#D3D3ED"/>
<path d="M440.197 331.524H434.311V337.41H440.197V331.524Z" fill="#D3D3ED"/>
<path d="M429.863 331.524H423.977V337.41H429.863V331.524Z" fill="#D3D3ED"/>
<path d="M419.528 331.524H413.642V337.41H419.528V331.524Z" fill="#D3D3ED"/>
<path d="M409.175 331.524H403.289V337.41H409.175V331.524Z" fill="#D3D3ED"/>
<path d="M398.841 331.524H392.955V337.41H398.841V331.524Z" fill="#D3D3ED"/>
<path d="M388.506 331.524H382.62V337.41H388.506V331.524Z" fill="#D3D3ED"/>
<path d="M378.153 331.524H372.267V337.41H378.153V331.524Z" fill="#D3D3ED"/>
<path d="M367.819 331.524H361.933V337.41H367.819V331.524Z" fill="#D3D3ED"/>
<path d="M357.484 331.524H351.598V337.41H357.484V331.524Z" fill="#D3D3ED"/>
<path d="M347.131 331.524H341.245V337.41H347.131V331.524Z" fill="#D3D3ED"/>
<path d="M336.796 331.524H330.91V337.41H336.796V331.524Z" fill="#D3D3ED"/>
<path d="M326.462 331.524H320.576V337.41H326.462V331.524Z" fill="#D3D3ED"/>
<path d="M316.108 331.524H310.222V337.41H316.108V331.524Z" fill="#D3D3ED"/>
<path d="M709.063 321.17H703.177V327.056H709.063V321.17Z" fill="#D3D3ED"/>
<path d="M698.729 321.17H692.842V327.056H698.729V321.17Z" fill="#D3D3ED"/>
<path d="M688.394 321.17H682.508V327.056H688.394V321.17Z" fill="#D3D3ED"/>
<path d="M678.041 321.17H672.155V327.056H678.041V321.17Z" fill="#D3D3ED"/>
<path d="M667.706 321.17H661.82V327.056H667.706V321.17Z" fill="#D3D3ED"/>
<path d="M657.372 321.17H651.486V327.056H657.372V321.17Z" fill="#D3D3ED"/>
<path d="M647.018 321.17H641.132V327.056H647.018V321.17Z" fill="#D3D3ED"/>
<path d="M636.684 321.17H630.798V327.056H636.684V321.17Z" fill="#D3D3ED"/>
<path d="M626.35 321.17H620.464V327.056H626.35V321.17Z" fill="#D3D3ED"/>
<path d="M440.197 321.17H434.311V327.056H440.197V321.17Z" fill="#D3D3ED"/>
<path d="M429.863 321.17H423.977V327.056H429.863V321.17Z" fill="#D3D3ED"/>
<path d="M419.528 321.17H413.642V327.056H419.528V321.17Z" fill="#D3D3ED"/>
<path d="M409.175 321.17H403.289V327.056H409.175V321.17Z" fill="#D3D3ED"/>
<path d="M398.841 321.17H392.955V327.056H398.841V321.17Z" fill="#D3D3ED"/>
<path d="M388.506 321.17H382.62V327.056H388.506V321.17Z" fill="#D3D3ED"/>
<path d="M378.153 321.17H372.267V327.056H378.153V321.17Z" fill="#D3D3ED"/>
<path d="M367.819 321.17H361.933V327.056H367.819V321.17Z" fill="#D3D3ED"/>
<path d="M357.484 321.17H351.598V327.056H357.484V321.17Z" fill="#D3D3ED"/>
<path d="M347.131 321.17H341.245V327.056H347.131V321.17Z" fill="#D3D3ED"/>
<path d="M336.796 321.17H330.91V327.056H336.796V321.17Z" fill="#D3D3ED"/>
<path d="M326.462 321.17H320.576V327.056H326.462V321.17Z" fill="#D3D3ED"/>
<path d="M316.108 321.17H310.222V327.056H316.108V321.17Z" fill="#D3D3ED"/>
<path d="M305.774 321.17H299.888V327.056H305.774V321.17Z" fill="#D3D3ED"/>
<path d="M709.063 310.817H703.177V316.703H709.063V310.817Z" fill="#D3D3ED"/>
<path d="M698.729 310.817H692.842V316.703H698.729V310.817Z" fill="#D3D3ED"/>
<path d="M688.394 310.817H682.508V316.703H688.394V310.817Z" fill="#D3D3ED"/>
<path d="M678.041 310.817H672.155V316.703H678.041V310.817Z" fill="#D3D3ED"/>
<path d="M667.706 310.817H661.82V316.703H667.706V310.817Z" fill="#D3D3ED"/>
<path d="M657.372 310.817H651.486V316.703H657.372V310.817Z" fill="#D3D3ED"/>
<path d="M647.018 310.817H641.132V316.703H647.018V310.817Z" fill="#D3D3ED"/>
<path d="M636.684 310.817H630.798V316.703H636.684V310.817Z" fill="#D3D3ED"/>
<path d="M626.35 310.817H620.464V316.703H626.35V310.817Z" fill="#D3D3ED"/>
<path d="M615.997 310.817H610.11V316.703H615.997V310.817Z" fill="#D3D3ED"/>
<path d="M440.197 310.817H434.311V316.703H440.197V310.817Z" fill="#D3D3ED"/>
<path d="M429.863 310.817H423.977V316.703H429.863V310.817Z" fill="#D3D3ED"/>
<path d="M419.528 310.817H413.642V316.703H419.528V310.817Z" fill="#D3D3ED"/>
<path d="M409.175 310.817H403.289V316.703H409.175V310.817Z" fill="#D3D3ED"/>
<path d="M398.841 310.817H392.955V316.703H398.841V310.817Z" fill="#D3D3ED"/>
<path d="M388.506 310.817H382.62V316.703H388.506V310.817Z" fill="#D3D3ED"/>
<path d="M378.153 310.817H372.267V316.703H378.153V310.817Z" fill="#D3D3ED"/>
<path d="M367.819 310.817H361.933V316.703H367.819V310.817Z" fill="#D3D3ED"/>
<path d="M357.484 310.817H351.598V316.703H357.484V310.817Z" fill="#D3D3ED"/>
<path d="M347.131 310.817H341.245V316.703H347.131V310.817Z" fill="#D3D3ED"/>
<path d="M336.796 310.817H330.91V316.703H336.796V310.817Z" fill="#D3D3ED"/>
<path d="M326.462 310.817H320.576V316.703H326.462V310.817Z" fill="#D3D3ED"/>
<path d="M316.108 310.817H310.222V316.703H316.108V310.817Z" fill="#D3D3ED"/>
<path d="M305.774 310.817H299.888V316.703H305.774V310.817Z" fill="#D3D3ED"/>
<path d="M709.063 300.444H703.177V306.33H709.063V300.444Z" fill="#D3D3ED"/>
<path d="M698.729 300.444H692.842V306.33H698.729V300.444Z" fill="#D3D3ED"/>
<path d="M688.394 300.444H682.508V306.33H688.394V300.444Z" fill="#D3D3ED"/>
<path d="M678.041 300.444H672.155V306.33H678.041V300.444Z" fill="#D3D3ED"/>
<path d="M667.706 300.444H661.82V306.33H667.706V300.444Z" fill="#D3D3ED"/>
<path d="M657.372 300.444H651.486V306.33H657.372V300.444Z" fill="#D3D3ED"/>
<path d="M647.018 300.444H641.132V306.33H647.018V300.444Z" fill="#D3D3ED"/>
<path d="M636.684 300.444H630.798V306.33H636.684V300.444Z" fill="#D3D3ED"/>
<path d="M626.35 300.444H620.464V306.33H626.35V300.444Z" fill="#D3D3ED"/>
<path d="M615.997 300.444H610.11V306.33H615.997V300.444Z" fill="#D3D3ED"/>
<path d="M429.863 300.444H423.977V306.33H429.863V300.444Z" fill="#D3D3ED"/>
<path d="M419.528 300.444H413.642V306.33H419.528V300.444Z" fill="#D3D3ED"/>
<path d="M409.175 300.444H403.289V306.33H409.175V300.444Z" fill="#D3D3ED"/>
<path d="M398.841 300.444H392.955V306.33H398.841V300.444Z" fill="#D3D3ED"/>
<path d="M388.506 300.444H382.62V306.33H388.506V300.444Z" fill="#D3D3ED"/>
<path d="M378.153 300.444H372.267V306.33H378.153V300.444Z" fill="#D3D3ED"/>
<path d="M367.819 300.444H361.933V306.33H367.819V300.444Z" fill="#D3D3ED"/>
<path d="M357.484 300.444H351.598V306.33H357.484V300.444Z" fill="#D3D3ED"/>
<path d="M347.131 300.444H341.245V306.33H347.131V300.444Z" fill="#D3D3ED"/>
<path d="M336.796 300.444H330.91V306.33H336.796V300.444Z" fill="#D3D3ED"/>
<path d="M326.462 300.444H320.576V306.33H326.462V300.444Z" fill="#D3D3ED"/>
<path d="M316.108 300.444H310.222V306.33H316.108V300.444Z" fill="#D3D3ED"/>
<path d="M305.774 300.444H299.888V306.33H305.774V300.444Z" fill="#D3D3ED"/>
<path d="M719.416 290.09H713.53V295.977H719.416V290.09Z" fill="#D3D3ED"/>
<path d="M709.063 290.09H703.177V295.977H709.063V290.09Z" fill="#D3D3ED"/>
<path d="M698.729 290.09H692.842V295.977H698.729V290.09Z" fill="#D3D3ED"/>
<path d="M688.394 290.09H682.508V295.977H688.394V290.09Z" fill="#D3D3ED"/>
<path d="M678.041 290.09H672.155V295.977H678.041V290.09Z" fill="#D3D3ED"/>
<path d="M667.706 290.09H661.82V295.977H667.706V290.09Z" fill="#D3D3ED"/>
<path d="M657.372 290.09H651.486V295.977H657.372V290.09Z" fill="#D3D3ED"/>
<path d="M647.018 290.09H641.132V295.977H647.018V290.09Z" fill="#D3D3ED"/>
<path d="M636.684 290.09H630.798V295.977H636.684V290.09Z" fill="#D3D3ED"/>
<path d="M626.35 290.09H620.464V295.977H626.35V290.09Z" fill="#D3D3ED"/>
<path d="M615.997 290.09H610.11V295.977H615.997V290.09Z" fill="#D3D3ED"/>
<path d="M398.841 290.09H392.955V295.977H398.841V290.09Z" fill="#D3D3ED"/>
<path d="M388.506 290.09H382.62V295.977H388.506V290.09Z" fill="#D3D3ED"/>
<path d="M378.153 290.09H372.267V295.977H378.153V290.09Z" fill="#D3D3ED"/>
<path d="M367.819 290.09H361.933V295.977H367.819V290.09Z" fill="#D3D3ED"/>
<path d="M357.484 290.09H351.598V295.977H357.484V290.09Z" fill="#D3D3ED"/>
<path d="M347.131 290.09H341.245V295.977H347.131V290.09Z" fill="#D3D3ED"/>
<path d="M336.796 290.09H330.91V295.977H336.796V290.09Z" fill="#D3D3ED"/>
<path d="M326.462 290.09H320.576V295.977H326.462V290.09Z" fill="#D3D3ED"/>
<path d="M316.108 290.09H310.222V295.977H316.108V290.09Z" fill="#D3D3ED"/>
<path d="M305.774 290.09H299.888V295.977H305.774V290.09Z" fill="#D3D3ED"/>
<path d="M729.751 279.718H723.865V285.604H729.751V279.718Z" fill="#D3D3ED"/>
<path d="M719.416 279.718H713.53V285.604H719.416V279.718Z" fill="#D3D3ED"/>
<path d="M709.063 279.718H703.177V285.604H709.063V279.718Z" fill="#D3D3ED"/>
<path d="M698.729 279.718H692.842V285.604H698.729V279.718Z" fill="#D3D3ED"/>
<path d="M688.394 279.718H682.508V285.604H688.394V279.718Z" fill="#D3D3ED"/>
<path d="M678.041 279.718H672.155V285.604H678.041V279.718Z" fill="#D3D3ED"/>
<path d="M667.706 279.718H661.82V285.604H667.706V279.718Z" fill="#D3D3ED"/>
<path d="M657.372 279.718H651.486V285.604H657.372V279.718Z" fill="#D3D3ED"/>
<path d="M647.018 279.718H641.132V285.604H647.018V279.718Z" fill="#D3D3ED"/>
<path d="M636.684 279.718H630.798V285.604H636.684V279.718Z" fill="#D3D3ED"/>
<path d="M626.35 279.718H620.464V285.604H626.35V279.718Z" fill="#D3D3ED"/>
<path d="M615.997 279.718H610.11V285.604H615.997V279.718Z" fill="#D3D3ED"/>
<path d="M388.506 279.718H382.62V285.604H388.506V279.718Z" fill="#D3D3ED"/>
<path d="M378.153 279.718H372.267V285.604H378.153V279.718Z" fill="#D3D3ED"/>
<path d="M367.819 279.718H361.933V285.604H367.819V279.718Z" fill="#D3D3ED"/>
<path d="M357.484 279.718H351.598V285.604H357.484V279.718Z" fill="#D3D3ED"/>
<path d="M347.131 279.718H341.245V285.604H347.131V279.718Z" fill="#D3D3ED"/>
<path d="M336.796 279.718H330.91V285.604H336.796V279.718Z" fill="#D3D3ED"/>
<path d="M326.462 279.718H320.576V285.604H326.462V279.718Z" fill="#D3D3ED"/>
<path d="M316.108 279.718H310.222V285.604H316.108V279.718Z" fill="#D3D3ED"/>
<path d="M729.751 269.364H723.865V275.25H729.751V269.364Z" fill="#D3D3ED"/>
<path d="M719.416 269.364H713.53V275.25H719.416V269.364Z" fill="#D3D3ED"/>
<path d="M709.063 269.364H703.177V275.25H709.063V269.364Z" fill="#D3D3ED"/>
<path d="M698.729 269.364H692.842V275.25H698.729V269.364Z" fill="#D3D3ED"/>
<path d="M688.394 269.364H682.508V275.25H688.394V269.364Z" fill="#D3D3ED"/>
<path d="M678.041 269.364H672.155V275.25H678.041V269.364Z" fill="#D3D3ED"/>
<path d="M667.706 269.364H661.82V275.25H667.706V269.364Z" fill="#D3D3ED"/>
<path d="M657.372 269.364H651.486V275.25H657.372V269.364Z" fill="#D3D3ED"/>
<path d="M647.018 269.364H641.132V275.25H647.018V269.364Z" fill="#D3D3ED"/>
<path d="M636.684 269.364H630.798V275.25H636.684V269.364Z" fill="#D3D3ED"/>
<path d="M626.35 269.364H620.464V275.25H626.35V269.364Z" fill="#D3D3ED"/>
<path d="M615.997 269.364H610.11V275.25H615.997V269.364Z" fill="#D3D3ED"/>
<path d="M605.662 269.364H599.776V275.25H605.662V269.364Z" fill="#D3D3ED"/>
<path d="M595.328 269.364H589.441V275.25H595.328V269.364Z" fill="#D3D3ED"/>
<path d="M388.506 269.364H382.62V275.25H388.506V269.364Z" fill="#D3D3ED"/>
<path d="M378.153 269.364H372.267V275.25H378.153V269.364Z" fill="#D3D3ED"/>
<path d="M367.819 269.364H361.933V275.25H367.819V269.364Z" fill="#D3D3ED"/>
<path d="M357.484 269.364H351.598V275.25H357.484V269.364Z" fill="#D3D3ED"/>
<path d="M347.131 269.364H341.245V275.25H347.131V269.364Z" fill="#D3D3ED"/>
<path d="M336.796 269.364H330.91V275.25H336.796V269.364Z" fill="#D3D3ED"/>
<path d="M326.462 269.364H320.576V275.25H326.462V269.364Z" fill="#D3D3ED"/>
<path d="M316.108 269.364H310.222V275.25H316.108V269.364Z" fill="#D3D3ED"/>
<path d="M740.085 259.01H734.199V264.897H740.085V259.01Z" fill="#D3D3ED"/>
<path d="M729.751 259.01H723.865V264.897H729.751V259.01Z" fill="#D3D3ED"/>
<path d="M719.416 259.01H713.53V264.897H719.416V259.01Z" fill="#D3D3ED"/>
<path d="M709.063 259.01H703.177V264.897H709.063V259.01Z" fill="#D3D3ED"/>
<path d="M698.729 259.01H692.842V264.897H698.729V259.01Z" fill="#D3D3ED"/>
<path d="M688.394 259.01H682.508V264.897H688.394V259.01Z" fill="#D3D3ED"/>
<path d="M678.041 259.01H672.155V264.897H678.041V259.01Z" fill="#D3D3ED"/>
<path d="M667.706 259.01H661.82V264.897H667.706V259.01Z" fill="#D3D3ED"/>
<path d="M657.372 259.01H651.486V264.897H657.372V259.01Z" fill="#D3D3ED"/>
<path d="M647.018 259.01H641.132V264.897H647.018V259.01Z" fill="#D3D3ED"/>
<path d="M636.684 259.01H630.798V264.897H636.684V259.01Z" fill="#D3D3ED"/>
<path d="M626.35 259.01H620.464V264.897H626.35V259.01Z" fill="#D3D3ED"/>
<path d="M615.997 259.01H610.11V264.897H615.997V259.01Z" fill="#D3D3ED"/>
<path d="M605.662 259.01H599.776V264.897H605.662V259.01Z" fill="#D3D3ED"/>
<path d="M595.328 259.01H589.441V264.897H595.328V259.01Z" fill="#D3D3ED"/>
<path d="M584.974 259.01H579.088V264.897H584.974V259.01Z" fill="#D3D3ED"/>
<path d="M574.64 259.01H568.753V264.897H574.64V259.01Z" fill="#D3D3ED"/>
<path d="M564.305 259.01H558.419V264.897H564.305V259.01Z" fill="#D3D3ED"/>
<path d="M553.952 259.01H548.066V264.897H553.952V259.01Z" fill="#D3D3ED"/>
<path d="M543.617 259.01H537.731V264.897H543.617V259.01Z" fill="#D3D3ED"/>
<path d="M533.283 259.01H527.397V264.897H533.283V259.01Z" fill="#D3D3ED"/>
<path d="M357.484 259.01H351.598V264.897H357.484V259.01Z" fill="#D3D3ED"/>
<path d="M347.131 259.01H341.245V264.897H347.131V259.01Z" fill="#D3D3ED"/>
<path d="M336.796 259.01H330.91V264.897H336.796V259.01Z" fill="#D3D3ED"/>
<path d="M326.462 259.01H320.576V264.897H326.462V259.01Z" fill="#D3D3ED"/>
<path d="M316.108 259.01H310.222V264.897H316.108V259.01Z" fill="#D3D3ED"/>
<path d="M305.774 259.01H299.888V264.897H305.774V259.01Z" fill="#D3D3ED"/>
<path d="M295.44 259.01H289.554V264.897H295.44V259.01Z" fill="#D3D3ED"/>
<path d="M719.416 248.638H713.53V254.524H719.416V248.638Z" fill="#D3D3ED"/>
<path d="M709.063 248.638H703.177V254.524H709.063V248.638Z" fill="#D3D3ED"/>
<path d="M698.729 248.638H692.842V254.524H698.729V248.638Z" fill="#D3D3ED"/>
<path d="M688.394 248.638H682.508V254.524H688.394V248.638Z" fill="#D3D3ED"/>
<path d="M678.041 248.638H672.155V254.524H678.041V248.638Z" fill="#D3D3ED"/>
<path d="M667.706 248.638H661.82V254.524H667.706V248.638Z" fill="#D3D3ED"/>
<path d="M657.372 248.638H651.486V254.524H657.372V248.638Z" fill="#D3D3ED"/>
<path d="M647.018 248.638H641.132V254.524H647.018V248.638Z" fill="#D3D3ED"/>
<path d="M636.684 248.638H630.798V254.524H636.684V248.638Z" fill="#D3D3ED"/>
<path d="M626.35 248.638H620.464V254.524H626.35V248.638Z" fill="#D3D3ED"/>
<path d="M615.997 248.638H610.11V254.524H615.997V248.638Z" fill="#D3D3ED"/>
<path d="M605.662 248.638H599.776V254.524H605.662V248.638Z" fill="#D3D3ED"/>
<path d="M595.328 248.638H589.441V254.524H595.328V248.638Z" fill="#D3D3ED"/>
<path d="M584.974 248.638H579.088V254.524H584.974V248.638Z" fill="#D3D3ED"/>
<path d="M574.64 248.638H568.753V254.524H574.64V248.638Z" fill="#D3D3ED"/>
<path d="M564.305 248.638H558.419V254.524H564.305V248.638Z" fill="#D3D3ED"/>
<path d="M553.952 248.638H548.066V254.524H553.952V248.638Z" fill="#D3D3ED"/>
<path d="M543.617 248.638H537.731V254.524H543.617V248.638Z" fill="#D3D3ED"/>
<path d="M533.283 248.638H527.397V254.524H533.283V248.638Z" fill="#D3D3ED"/>
<path d="M522.93 248.638H517.043V254.524H522.93V248.638Z" fill="#D3D3ED"/>
<path d="M740.085 238.284H734.199V244.171H740.085V238.284Z" fill="#D3D3ED"/>
<path d="M729.751 238.284H723.865V244.171H729.751V238.284Z" fill="#D3D3ED"/>
<path d="M709.063 238.284H703.177V244.171H709.063V238.284Z" fill="#D3D3ED"/>
<path d="M698.729 238.284H692.842V244.171H698.729V238.284Z" fill="#D3D3ED"/>
<path d="M688.394 238.284H682.508V244.171H688.394V238.284Z" fill="#D3D3ED"/>
<path d="M678.041 238.284H672.155V244.171H678.041V238.284Z" fill="#D3D3ED"/>
<path d="M667.706 238.284H661.82V244.171H667.706V238.284Z" fill="#D3D3ED"/>
<path d="M657.372 238.284H651.486V244.171H657.372V238.284Z" fill="#D3D3ED"/>
<path d="M647.018 238.284H641.132V244.171H647.018V238.284Z" fill="#D3D3ED"/>
<path d="M636.684 238.284H630.798V244.171H636.684V238.284Z" fill="#D3D3ED"/>
<path d="M626.35 238.284H620.464V244.171H626.35V238.284Z" fill="#D3D3ED"/>
<path d="M615.997 238.284H610.11V244.171H615.997V238.284Z" fill="#D3D3ED"/>
<path d="M605.662 238.284H599.776V244.171H605.662V238.284Z" fill="#D3D3ED"/>
<path d="M595.328 238.284H589.441V244.171H595.328V238.284Z" fill="#D3D3ED"/>
<path d="M584.974 238.284H579.088V244.171H584.974V238.284Z" fill="#D3D3ED"/>
<path d="M574.64 238.284H568.753V244.171H574.64V238.284Z" fill="#D3D3ED"/>
<path d="M564.305 238.284H558.419V244.171H564.305V238.284Z" fill="#D3D3ED"/>
<path d="M553.952 238.284H548.066V244.171H553.952V238.284Z" fill="#D3D3ED"/>
<path d="M543.617 238.284H537.731V244.171H543.617V238.284Z" fill="#D3D3ED"/>
<path d="M533.283 238.284H527.397V244.171H533.283V238.284Z" fill="#D3D3ED"/>
<path d="M522.93 238.284H517.043V244.171H522.93V238.284Z" fill="#D3D3ED"/>
<path d="M274.752 238.284H268.866V244.171H274.752V238.284Z" fill="#D3D3ED"/>
<path d="M264.417 238.284H258.531V244.171H264.417V238.284Z" fill="#D3D3ED"/>
<path d="M254.064 238.284H248.178V244.171H254.064V238.284Z" fill="#D3D3ED"/>
<path d="M750.439 227.931H744.552V233.817H750.439V227.931Z" fill="#D3D3ED"/>
<path d="M740.085 227.931H734.199V233.817H740.085V227.931Z" fill="#D3D3ED"/>
<path d="M729.751 227.931H723.865V233.817H729.751V227.931Z" fill="#D3D3ED"/>
<path d="M709.063 227.931H703.177V233.817H709.063V227.931Z" fill="#D3D3ED"/>
<path d="M698.729 227.931H692.842V233.817H698.729V227.931Z" fill="#D3D3ED"/>
<path d="M688.394 227.931H682.508V233.817H688.394V227.931Z" fill="#D3D3ED"/>
<path d="M678.041 227.931H672.155V233.817H678.041V227.931Z" fill="#D3D3ED"/>
<path d="M667.706 227.931H661.82V233.817H667.706V227.931Z" fill="#D3D3ED"/>
<path d="M657.372 227.931H651.486V233.817H657.372V227.931Z" fill="#D3D3ED"/>
<path d="M647.018 227.931H641.132V233.817H647.018V227.931Z" fill="#D3D3ED"/>
<path d="M636.684 227.931H630.798V233.817H636.684V227.931Z" fill="#D3D3ED"/>
<path d="M626.35 227.931H620.464V233.817H626.35V227.931Z" fill="#D3D3ED"/>
<path d="M615.997 227.931H610.11V233.817H615.997V227.931Z" fill="#D3D3ED"/>
<path d="M605.662 227.931H599.776V233.817H605.662V227.931Z" fill="#D3D3ED"/>
<path d="M595.328 227.931H589.441V233.817H595.328V227.931Z" fill="#D3D3ED"/>
<path d="M584.974 227.931H579.088V233.817H584.974V227.931Z" fill="#D3D3ED"/>
<path d="M574.64 227.931H568.753V233.817H574.64V227.931Z" fill="#D3D3ED"/>
<path d="M564.305 227.931H558.419V233.817H564.305V227.931Z" fill="#D3D3ED"/>
<path d="M553.952 227.931H548.066V233.817H553.952V227.931Z" fill="#D3D3ED"/>
<path d="M543.617 227.931H537.731V233.817H543.617V227.931Z" fill="#D3D3ED"/>
<path d="M533.283 227.931H527.397V233.817H533.283V227.931Z" fill="#D3D3ED"/>
<path d="M522.93 227.931H517.043V233.817H522.93V227.931Z" fill="#D3D3ED"/>
<path d="M264.417 227.931H258.531V233.817H264.417V227.931Z" fill="#D3D3ED"/>
<path d="M254.064 227.931H248.178V233.817H254.064V227.931Z" fill="#D3D3ED"/>
<path d="M243.73 227.931H237.843V233.817H243.73V227.931Z" fill="#D3D3ED"/>
<path d="M233.395 227.931H227.509V233.817H233.395V227.931Z" fill="#D3D3ED"/>
<path d="M771.107 217.558H765.221V223.444H771.107V217.558Z" fill="#D3D3ED"/>
<path d="M760.773 217.558H754.887V223.444H760.773V217.558Z" fill="#D3D3ED"/>
<path d="M750.439 217.558H744.552V223.444H750.439V217.558Z" fill="#D3D3ED"/>
<path d="M740.085 217.558H734.199V223.444H740.085V217.558Z" fill="#D3D3ED"/>
<path d="M729.751 217.558H723.865V223.444H729.751V217.558Z" fill="#D3D3ED"/>
<path d="M719.416 217.558H713.53V223.444H719.416V217.558Z" fill="#D3D3ED"/>
<path d="M698.729 217.558H692.842V223.444H698.729V217.558Z" fill="#D3D3ED"/>
<path d="M688.394 217.558H682.508V223.444H688.394V217.558Z" fill="#D3D3ED"/>
<path d="M678.041 217.558H672.155V223.444H678.041V217.558Z" fill="#D3D3ED"/>
<path d="M667.706 217.558H661.82V223.444H667.706V217.558Z" fill="#D3D3ED"/>
<path d="M657.372 217.558H651.486V223.444H657.372V217.558Z" fill="#D3D3ED"/>
<path d="M647.018 217.558H641.132V223.444H647.018V217.558Z" fill="#D3D3ED"/>
<path d="M636.684 217.558H630.798V223.444H636.684V217.558Z" fill="#D3D3ED"/>
<path d="M626.35 217.558H620.464V223.444H626.35V217.558Z" fill="#D3D3ED"/>
<path d="M615.997 217.558H610.11V223.444H615.997V217.558Z" fill="#D3D3ED"/>
<path d="M605.662 217.558H599.776V223.444H605.662V217.558Z" fill="#D3D3ED"/>
<path d="M595.328 217.558H589.441V223.444H595.328V217.558Z" fill="#D3D3ED"/>
<path d="M584.974 217.558H579.088V223.444H584.974V217.558Z" fill="#D3D3ED"/>
<path d="M574.64 217.558H568.753V223.444H574.64V217.558Z" fill="#D3D3ED"/>
<path d="M564.305 217.558H558.419V223.444H564.305V217.558Z" fill="#D3D3ED"/>
<path d="M553.952 217.558H548.066V223.444H553.952V217.558Z" fill="#D3D3ED"/>
<path d="M543.617 217.558H537.731V223.444H543.617V217.558Z" fill="#D3D3ED"/>
<path d="M533.283 217.558H527.397V223.444H533.283V217.558Z" fill="#D3D3ED"/>
<path d="M522.93 217.558H517.043V223.444H522.93V217.558Z" fill="#D3D3ED"/>
<path d="M264.417 217.558H258.531V223.444H264.417V217.558Z" fill="#D3D3ED"/>
<path d="M233.395 217.558H227.509V223.444H233.395V217.558Z" fill="#D3D3ED"/>
<path d="M223.042 217.558H217.156V223.444H223.042V217.558Z" fill="#D3D3ED"/>
<path d="M212.707 217.558H206.821V223.444H212.707V217.558Z" fill="#D3D3ED"/>
<path d="M771.107 207.205H765.221V213.091H771.107V207.205Z" fill="#D3D3ED"/>
<path d="M760.773 207.205H754.887V213.091H760.773V207.205Z" fill="#D3D3ED"/>
<path d="M750.439 207.205H744.552V213.091H750.439V207.205Z" fill="#D3D3ED"/>
<path d="M740.085 207.205H734.199V213.091H740.085V207.205Z" fill="#D3D3ED"/>
<path d="M729.751 207.205H723.865V213.091H729.751V207.205Z" fill="#D3D3ED"/>
<path d="M719.416 207.205H713.53V213.091H719.416V207.205Z" fill="#D3D3ED"/>
<path d="M688.394 207.205H682.508V213.091H688.394V207.205Z" fill="#D3D3ED"/>
<path d="M678.041 207.205H672.155V213.091H678.041V207.205Z" fill="#D3D3ED"/>
<path d="M667.706 207.205H661.82V213.091H667.706V207.205Z" fill="#D3D3ED"/>
<path d="M657.372 207.205H651.486V213.091H657.372V207.205Z" fill="#D3D3ED"/>
<path d="M647.018 207.205H641.132V213.091H647.018V207.205Z" fill="#D3D3ED"/>
<path d="M636.684 207.205H630.798V213.091H636.684V207.205Z" fill="#D3D3ED"/>
<path d="M626.35 207.205H620.464V213.091H626.35V207.205Z" fill="#D3D3ED"/>
<path d="M615.997 207.205H610.11V213.091H615.997V207.205Z" fill="#D3D3ED"/>
<path d="M605.662 207.205H599.776V213.091H605.662V207.205Z" fill="#D3D3ED"/>
<path d="M595.328 207.205H589.441V213.091H595.328V207.205Z" fill="#D3D3ED"/>
<path d="M584.974 207.205H579.088V213.091H584.974V207.205Z" fill="#D3D3ED"/>
<path d="M574.64 207.205H568.753V213.091H574.64V207.205Z" fill="#D3D3ED"/>
<path d="M564.305 207.205H558.419V213.091H564.305V207.205Z" fill="#D3D3ED"/>
<path d="M553.952 207.205H548.066V213.091H553.952V207.205Z" fill="#D3D3ED"/>
<path d="M543.617 207.205H537.731V213.091H543.617V207.205Z" fill="#D3D3ED"/>
<path d="M533.283 207.205H527.397V213.091H533.283V207.205Z" fill="#D3D3ED"/>
<path d="M522.93 207.205H517.043V213.091H522.93V207.205Z" fill="#D3D3ED"/>
<path d="M233.395 207.205H227.509V213.091H233.395V207.205Z" fill="#D3D3ED"/>
<path d="M223.042 207.205H217.156V213.091H223.042V207.205Z" fill="#D3D3ED"/>
<path d="M212.707 207.205H206.821V213.091H212.707V207.205Z" fill="#D3D3ED"/>
<path d="M192.019 207.205H186.133V213.091H192.019V207.205Z" fill="#D3D3ED"/>
<path d="M802.13 196.851H796.243V202.737H802.13V196.851Z" fill="#D3D3ED"/>
<path d="M791.795 196.851H785.909V202.737H791.795V196.851Z" fill="#D3D3ED"/>
<path d="M781.461 196.851H775.575V202.737H781.461V196.851Z" fill="#D3D3ED"/>
<path d="M750.439 196.851H744.552V202.737H750.439V196.851Z" fill="#D3D3ED"/>
<path d="M740.085 196.851H734.199V202.737H740.085V196.851Z" fill="#D3D3ED"/>
<path d="M729.751 196.851H723.865V202.737H729.751V196.851Z" fill="#D3D3ED"/>
<path d="M719.416 196.851H713.53V202.737H719.416V196.851Z" fill="#D3D3ED"/>
<path d="M709.063 196.851H703.177V202.737H709.063V196.851Z" fill="#D3D3ED"/>
<path d="M688.394 196.851H682.508V202.737H688.394V196.851Z" fill="#D3D3ED"/>
<path d="M678.041 196.851H672.155V202.737H678.041V196.851Z" fill="#D3D3ED"/>
<path d="M667.706 196.851H661.82V202.737H667.706V196.851Z" fill="#D3D3ED"/>
<path d="M657.372 196.851H651.486V202.737H657.372V196.851Z" fill="#D3D3ED"/>
<path d="M647.018 196.851H641.132V202.737H647.018V196.851Z" fill="#D3D3ED"/>
<path d="M636.684 196.851H630.798V202.737H636.684V196.851Z" fill="#D3D3ED"/>
<path d="M626.35 196.851H620.464V202.737H626.35V196.851Z" fill="#D3D3ED"/>
<path d="M615.997 196.851H610.11V202.737H615.997V196.851Z" fill="#D3D3ED"/>
<path d="M605.662 196.851H599.776V202.737H605.662V196.851Z" fill="#D3D3ED"/>
<path d="M595.328 196.851H589.441V202.737H595.328V196.851Z" fill="#D3D3ED"/>
<path d="M584.974 196.851H579.088V202.737H584.974V196.851Z" fill="#D3D3ED"/>
<path d="M574.64 196.851H568.753V202.737H574.64V196.851Z" fill="#D3D3ED"/>
<path d="M564.305 196.851H558.419V202.737H564.305V196.851Z" fill="#D3D3ED"/>
<path d="M553.952 196.851H548.066V202.737H553.952V196.851Z" fill="#D3D3ED"/>
<path d="M543.617 196.851H537.731V202.737H543.617V196.851Z" fill="#D3D3ED"/>
<path d="M533.283 196.851H527.397V202.737H533.283V196.851Z" fill="#D3D3ED"/>
<path d="M296.553 196.851H292.554C290.897 196.851 289.554 198.194 289.554 199.851V203.851C289.554 205.508 290.897 206.851 292.554 206.851H296.553C298.21 206.851 299.553 205.508 299.553 203.851V199.851C299.553 198.194 298.21 196.851 296.553 196.851Z" fill="url(#paint0_linear_349_979)"/>
<path d="M233.395 196.851H227.509V202.737H233.395V196.851Z" fill="#D3D3ED"/>
<path d="M223.042 196.851H217.156V202.737H223.042V196.851Z" fill="#D3D3ED"/>
<path d="M212.707 196.851H206.821V202.737H212.707V196.851Z" fill="#D3D3ED"/>
<path d="M202.373 196.851H196.487V202.737H202.373V196.851Z" fill="#D3D3ED"/>
<path d="M802.13 186.478H796.243V192.365H802.13V186.478Z" fill="#D3D3ED"/>
<path d="M791.795 186.478H785.909V192.365H791.795V186.478Z" fill="#D3D3ED"/>
<path d="M781.461 186.478H775.575V192.365H781.461V186.478Z" fill="#D3D3ED"/>
<path d="M771.107 186.478H765.221V192.365H771.107V186.478Z" fill="#D3D3ED"/>
<path d="M760.773 186.478H754.887V192.365H760.773V186.478Z" fill="#D3D3ED"/>
<path d="M729.751 186.478H723.865V192.365H729.751V186.478Z" fill="#D3D3ED"/>
<path d="M719.416 186.478H713.53V192.365H719.416V186.478Z" fill="#D3D3ED"/>
<path d="M709.063 186.478H703.177V192.365H709.063V186.478Z" fill="#D3D3ED"/>
<path d="M698.729 186.478H692.842V192.365H698.729V186.478Z" fill="#D3D3ED"/>
<path d="M678.041 186.478H672.155V192.365H678.041V186.478Z" fill="#D3D3ED"/>
<path d="M667.706 186.478H661.82V192.365H667.706V186.478Z" fill="#D3D3ED"/>
<path d="M657.372 186.478H651.486V192.365H657.372V186.478Z" fill="#D3D3ED"/>
<path d="M647.018 186.478H641.132V192.365H647.018V186.478Z" fill="#D3D3ED"/>
<path d="M636.684 186.478H630.798V192.365H636.684V186.478Z" fill="#D3D3ED"/>
<path d="M626.35 186.478H620.464V192.365H626.35V186.478Z" fill="#D3D3ED"/>
<path d="M615.997 186.478H610.11V192.365H615.997V186.478Z" fill="#D3D3ED"/>
<path d="M605.662 186.478H599.776V192.365H605.662V186.478Z" fill="#D3D3ED"/>
<path d="M595.328 186.478H589.441V192.365H595.328V186.478Z" fill="#D3D3ED"/>
<path d="M584.974 186.478H579.088V192.365H584.974V186.478Z" fill="#D3D3ED"/>
<path d="M574.64 186.478H568.753V192.365H574.64V186.478Z" fill="#D3D3ED"/>
<path d="M564.305 186.478H558.419V192.365H564.305V186.478Z" fill="#D3D3ED"/>
<path d="M553.952 186.478H548.066V192.365H553.952V186.478Z" fill="#D3D3ED"/>
<path d="M543.617 186.478H537.731V192.365H543.617V186.478Z" fill="#D3D3ED"/>
<path d="M233.395 186.478H227.509V192.365H233.395V186.478Z" fill="#D3D3ED"/>
<path d="M223.042 186.478H217.156V192.365H223.042V186.478Z" fill="#D3D3ED"/>
<path d="M212.707 186.478H206.821V192.365H212.707V186.478Z" fill="#D3D3ED"/>
<path d="M202.373 186.478H196.487V192.365H202.373V186.478Z" fill="#D3D3ED"/>
<path d="M192.019 186.478H186.133V192.365H192.019V186.478Z" fill="#D3D3ED"/>
<path d="M802.13 176.125H796.243V182.011H802.13V176.125Z" fill="#D3D3ED"/>
<path d="M791.795 176.125H785.909V182.011H791.795V176.125Z" fill="#D3D3ED"/>
<path d="M781.461 176.125H775.575V182.011H781.461V176.125Z" fill="#D3D3ED"/>
<path d="M771.107 176.125H765.221V182.011H771.107V176.125Z" fill="#D3D3ED"/>
<path d="M760.773 176.125H754.887V182.011H760.773V176.125Z" fill="#D3D3ED"/>
<path d="M750.439 176.125H744.552V182.011H750.439V176.125Z" fill="#D3D3ED"/>
<path d="M740.085 176.125H734.199V182.011H740.085V176.125Z" fill="#D3D3ED"/>
<path d="M729.751 176.125H723.865V182.011H729.751V176.125Z" fill="#D3D3ED"/>
<path d="M719.416 176.125H713.53V182.011H719.416V176.125Z" fill="#D3D3ED"/>
<path d="M709.063 176.125H703.177V182.011H709.063V176.125Z" fill="#D3D3ED"/>
<path d="M698.729 176.125H692.842V182.011H698.729V176.125Z" fill="#D3D3ED"/>
<path d="M647.018 176.125H641.132V182.011H647.018V176.125Z" fill="#D3D3ED"/>
<path d="M615.997 176.125H610.11V182.011H615.997V176.125Z" fill="#D3D3ED"/>
<path d="M605.662 176.125H599.776V182.011H605.662V176.125Z" fill="#D3D3ED"/>
<path d="M595.328 176.125H589.441V182.011H595.328V176.125Z" fill="#D3D3ED"/>
<path d="M584.974 176.125H579.088V182.011H584.974V176.125Z" fill="#D3D3ED"/>
<path d="M574.64 176.125H568.753V182.011H574.64V176.125Z" fill="#D3D3ED"/>
<path d="M564.305 176.125H558.419V182.011H564.305V176.125Z" fill="#D3D3ED"/>
<path d="M553.952 176.125H548.066V182.011H553.952V176.125Z" fill="#D3D3ED"/>
<path d="M295.44 176.125H289.554V182.011H295.44V176.125Z" fill="#D3D3ED"/>
<path d="M285.086 176.125H279.2V182.011H285.086V176.125Z" fill="#D3D3ED"/>
<path d="M274.752 176.125H268.866V182.011H274.752V176.125Z" fill="#D3D3ED"/>
<path d="M264.417 176.125H258.531V182.011H264.417V176.125Z" fill="#D3D3ED"/>
<path d="M254.064 176.125H248.178V182.011H254.064V176.125Z" fill="#D3D3ED"/>
<path d="M243.73 176.125H237.843V182.011H243.73V176.125Z" fill="#D3D3ED"/>
<path d="M233.395 176.125H227.509V182.011H233.395V176.125Z" fill="#D3D3ED"/>
<path d="M223.042 176.125H217.156V182.011H223.042V176.125Z" fill="#D3D3ED"/>
<path d="M212.707 176.125H206.821V182.011H212.707V176.125Z" fill="#D3D3ED"/>
<path d="M202.373 176.125H196.487V182.011H202.373V176.125Z" fill="#D3D3ED"/>
<path d="M192.019 176.125H186.133V182.011H192.019V176.125Z" fill="#D3D3ED"/>
<path d="M181.685 176.125H175.799V182.011H181.685V176.125Z" fill="#D3D3ED"/>
<path d="M171.351 176.125H165.465V182.011H171.351V176.125Z" fill="#D3D3ED"/>
<path d="M802.13 165.752H796.243V171.638H802.13V165.752Z" fill="#D3D3ED"/>
<path d="M791.795 165.752H785.909V171.638H791.795V165.752Z" fill="#D3D3ED"/>
<path d="M781.461 165.752H775.575V171.638H781.461V165.752Z" fill="#D3D3ED"/>
<path d="M771.107 165.752H765.221V171.638H771.107V165.752Z" fill="#D3D3ED"/>
<path d="M760.773 165.752H754.887V171.638H760.773V165.752Z" fill="#D3D3ED"/>
<path d="M750.439 165.752H744.552V171.638H750.439V165.752Z" fill="#D3D3ED"/>
<path d="M740.085 165.752H734.199V171.638H740.085V165.752Z" fill="#D3D3ED"/>
<path d="M729.751 165.752H723.865V171.638H729.751V165.752Z" fill="#D3D3ED"/>
<path d="M719.416 165.752H713.53V171.638H719.416V165.752Z" fill="#D3D3ED"/>
<path d="M709.063 165.752H703.177V171.638H709.063V165.752Z" fill="#D3D3ED"/>
<path d="M605.662 165.752H599.776V171.638H605.662V165.752Z" fill="#D3D3ED"/>
<path d="M595.328 165.752H589.441V171.638H595.328V165.752Z" fill="#D3D3ED"/>
<path d="M584.974 165.752H579.088V171.638H584.974V165.752Z" fill="#D3D3ED"/>
<path d="M574.64 165.752H568.753V171.638H574.64V165.752Z" fill="#D3D3ED"/>
<path d="M305.774 165.752H299.888V171.638H305.774V165.752Z" fill="#D3D3ED"/>
<path d="M295.44 165.752H289.554V171.638H295.44V165.752Z" fill="#D3D3ED"/>
<path d="M285.086 165.752H279.2V171.638H285.086V165.752Z" fill="#D3D3ED"/>
<path d="M274.752 165.752H268.866V171.638H274.752V165.752Z" fill="#D3D3ED"/>
<path d="M264.417 165.752H258.531V171.638H264.417V165.752Z" fill="#D3D3ED"/>
<path d="M254.064 165.752H248.178V171.638H254.064V165.752Z" fill="#D3D3ED"/>
<path d="M243.73 165.752H237.843V171.638H243.73V165.752Z" fill="#D3D3ED"/>
<path d="M233.395 165.752H227.509V171.638H233.395V165.752Z" fill="#D3D3ED"/>
<path d="M223.042 165.752H217.156V171.638H223.042V165.752Z" fill="#D3D3ED"/>
<path d="M212.707 165.752H206.821V171.638H212.707V165.752Z" fill="#D3D3ED"/>
<path d="M202.373 165.752H196.487V171.638H202.373V165.752Z" fill="#D3D3ED"/>
<path d="M192.019 165.752H186.133V171.638H192.019V165.752Z" fill="#D3D3ED"/>
<path d="M181.685 165.752H175.799V171.638H181.685V165.752Z" fill="#D3D3ED"/>
<path d="M171.351 165.752H165.465V171.638H171.351V165.752Z" fill="#D3D3ED"/>
<path d="M160.997 165.752H155.111V171.638H160.997V165.752Z" fill="#D3D3ED"/>
<path d="M802.13 155.399H796.243V161.285H802.13V155.399Z" fill="#D3D3ED"/>
<path d="M791.795 155.399H785.909V161.285H791.795V155.399Z" fill="#D3D3ED"/>
<path d="M781.461 155.399H775.575V161.285H781.461V155.399Z" fill="#D3D3ED"/>
<path d="M771.107 155.399H765.221V161.285H771.107V155.399Z" fill="#D3D3ED"/>
<path d="M740.085 155.399H734.199V161.285H740.085V155.399Z" fill="#D3D3ED"/>
<path d="M729.751 155.399H723.865V161.285H729.751V155.399Z" fill="#D3D3ED"/>
<path d="M719.416 155.399H713.53V161.285H719.416V155.399Z" fill="#D3D3ED"/>
<path d="M709.063 155.399H703.177V161.285H709.063V155.399Z" fill="#D3D3ED"/>
<path d="M698.729 155.399H692.842V161.285H698.729V155.399Z" fill="#D3D3ED"/>
<path d="M688.394 155.399H682.508V161.285H688.394V155.399Z" fill="#D3D3ED"/>
<path d="M678.041 155.399H672.155V161.285H678.041V155.399Z" fill="#D3D3ED"/>
<path d="M626.35 155.399H620.464V161.285H626.35V155.399Z" fill="#D3D3ED"/>
<path d="M564.305 155.399H558.419V161.285H564.305V155.399Z" fill="#D3D3ED"/>
<path d="M553.952 155.399H548.066V161.285H553.952V155.399Z" fill="#D3D3ED"/>
<path d="M305.774 155.399H299.888V161.285H305.774V155.399Z" fill="#D3D3ED"/>
<path d="M295.44 155.399H289.554V161.285H295.44V155.399Z" fill="#D3D3ED"/>
<path d="M285.086 155.399H279.2V161.285H285.086V155.399Z" fill="#D3D3ED"/>
<path d="M274.752 155.399H268.866V161.285H274.752V155.399Z" fill="#D3D3ED"/>
<path d="M264.417 155.399H258.531V161.285H264.417V155.399Z" fill="#D3D3ED"/>
<path d="M254.064 155.399H248.178V161.285H254.064V155.399Z" fill="#D3D3ED"/>
<path d="M243.73 155.399H237.843V161.285H243.73V155.399Z" fill="#D3D3ED"/>
<path d="M233.395 155.399H227.509V161.285H233.395V155.399Z" fill="#D3D3ED"/>
<path d="M223.042 155.399H217.156V161.285H223.042V155.399Z" fill="#D3D3ED"/>
<path d="M212.707 155.399H206.821V161.285H212.707V155.399Z" fill="#D3D3ED"/>
<path d="M202.373 155.399H196.487V161.285H202.373V155.399Z" fill="#D3D3ED"/>
<path d="M192.019 155.399H186.133V161.285H192.019V155.399Z" fill="#D3D3ED"/>
<path d="M181.685 155.399H175.799V161.285H181.685V155.399Z" fill="#D3D3ED"/>
<path d="M171.351 155.399H165.465V161.285H171.351V155.399Z" fill="#D3D3ED"/>
<path d="M160.997 155.399H155.111V161.285H160.997V155.399Z" fill="#D3D3ED"/>
<path d="M150.663 155.399H144.777V161.285H150.663V155.399Z" fill="#D3D3ED"/>
<path d="M802.13 145.045H796.243V150.931H802.13V145.045Z" fill="#D3D3ED"/>
<path d="M791.795 145.045H785.909V150.931H791.795V145.045Z" fill="#D3D3ED"/>
<path d="M781.461 145.045H775.575V150.931H781.461V145.045Z" fill="#D3D3ED"/>
<path d="M771.107 145.045H765.221V150.931H771.107V145.045Z" fill="#D3D3ED"/>
<path d="M740.085 145.045H734.199V150.931H740.085V145.045Z" fill="#D3D3ED"/>
<path d="M729.751 145.045H723.865V150.931H729.751V145.045Z" fill="#D3D3ED"/>
<path d="M719.416 145.045H713.53V150.931H719.416V145.045Z" fill="#D3D3ED"/>
<path d="M698.729 145.045H692.842V150.931H698.729V145.045Z" fill="#D3D3ED"/>
<path d="M688.394 145.045H682.508V150.931H688.394V145.045Z" fill="#D3D3ED"/>
<path d="M678.041 145.045H672.155V150.931H678.041V145.045Z" fill="#D3D3ED"/>
<path d="M667.706 145.045H661.82V150.931H667.706V145.045Z" fill="#D3D3ED"/>
<path d="M647.018 145.045H641.132V150.931H647.018V145.045Z" fill="#D3D3ED"/>
<path d="M626.35 145.045H620.464V150.931H626.35V145.045Z" fill="#D3D3ED"/>
<path d="M574.64 145.045H568.753V150.931H574.64V145.045Z" fill="#D3D3ED"/>
<path d="M564.305 145.045H558.419V150.931H564.305V145.045Z" fill="#D3D3ED"/>
<path d="M553.952 145.045H548.066V150.931H553.952V145.045Z" fill="#D3D3ED"/>
<path d="M316.108 145.045H310.222V150.931H316.108V145.045Z" fill="#D3D3ED"/>
<path d="M305.774 145.045H299.888V150.931H305.774V145.045Z" fill="#D3D3ED"/>
<path d="M295.44 145.045H289.554V150.931H295.44V145.045Z" fill="#D3D3ED"/>
<path d="M285.086 145.045H279.2V150.931H285.086V145.045Z" fill="#D3D3ED"/>
<path d="M274.752 145.045H268.866V150.931H274.752V145.045Z" fill="#D3D3ED"/>
<path d="M264.417 145.045H258.531V150.931H264.417V145.045Z" fill="#D3D3ED"/>
<path d="M254.064 145.045H248.178V150.931H254.064V145.045Z" fill="#D3D3ED"/>
<path d="M243.73 145.045H237.843V150.931H243.73V145.045Z" fill="#D3D3ED"/>
<path d="M233.395 145.045H227.509V150.931H233.395V145.045Z" fill="#D3D3ED"/>
<path d="M223.042 145.045H217.156V150.931H223.042V145.045Z" fill="#D3D3ED"/>
<path d="M212.707 145.045H206.821V150.931H212.707V145.045Z" fill="#D3D3ED"/>
<path d="M202.373 145.045H196.487V150.931H202.373V145.045Z" fill="#D3D3ED"/>
<path d="M192.019 145.045H186.133V150.931H192.019V145.045Z" fill="#D3D3ED"/>
<path d="M181.685 145.045H175.799V150.931H181.685V145.045Z" fill="#D3D3ED"/>
<path d="M171.351 145.045H165.465V150.931H171.351V145.045Z" fill="#D3D3ED"/>
<path d="M160.997 145.045H155.111V150.931H160.997V145.045Z" fill="#D3D3ED"/>
<path d="M150.663 145.045H144.777V150.931H150.663V145.045Z" fill="#D3D3ED"/>
<path d="M802.13 134.672H796.243V140.559H802.13V134.672Z" fill="#D3D3ED"/>
<path d="M791.795 134.672H785.909V140.559H791.795V134.672Z" fill="#D3D3ED"/>
<path d="M781.461 134.672H775.575V140.559H781.461V134.672Z" fill="#D3D3ED"/>
<path d="M771.107 134.672H765.221V140.559H771.107V134.672Z" fill="#D3D3ED"/>
<path d="M760.773 134.672H754.887V140.559H760.773V134.672Z" fill="#D3D3ED"/>
<path d="M729.751 134.672H723.865V140.559H729.751V134.672Z" fill="#D3D3ED"/>
<path d="M719.416 134.672H713.53V140.559H719.416V134.672Z" fill="#D3D3ED"/>
<path d="M667.706 134.672H661.82V140.559H667.706V134.672Z" fill="#D3D3ED"/>
<path d="M657.372 134.672H651.486V140.559H657.372V134.672Z" fill="#D3D3ED"/>
<path d="M647.018 134.672H641.132V140.559H647.018V134.672Z" fill="#D3D3ED"/>
<path d="M636.684 134.672H630.798V140.559H636.684V134.672Z" fill="#D3D3ED"/>
<path d="M615.997 134.672H610.11V140.559H615.997V134.672Z" fill="#D3D3ED"/>
<path d="M595.328 134.672H589.441V140.559H595.328V134.672Z" fill="#D3D3ED"/>
<path d="M584 133H580C578.343 133 577 134.343 577 136V140C577 141.657 578.343 143 580 143H584C585.657 143 587 141.657 587 140V136C587 134.343 585.657 133 584 133Z" fill="url(#paint1_linear_349_979)"/>
<path d="M574.64 134.672H568.753V140.559H574.64V134.672Z" fill="#D3D3ED"/>
<path d="M347.131 134.672H341.245V140.559H347.131V134.672Z" fill="#D3D3ED"/>
<path d="M326.462 134.672H320.576V140.559H326.462V134.672Z" fill="#D3D3ED"/>
<path d="M316.108 134.672H310.222V140.559H316.108V134.672Z" fill="#D3D3ED"/>
<path d="M295.44 134.672H289.554V140.559H295.44V134.672Z" fill="#D3D3ED"/>
<path d="M264.417 134.672H258.531V140.559H264.417V134.672Z" fill="#D3D3ED"/>
<path d="M254.064 134.672H248.178V140.559H254.064V134.672Z" fill="#D3D3ED"/>
<path d="M243.73 134.672H237.843V140.559H243.73V134.672Z" fill="#D3D3ED"/>
<path d="M233.395 134.672H227.509V140.559H233.395V134.672Z" fill="#D3D3ED"/>
<path d="M223.042 134.672H217.156V140.559H223.042V134.672Z" fill="#D3D3ED"/>
<path d="M212.707 134.672H206.821V140.559H212.707V134.672Z" fill="#D3D3ED"/>
<path d="M202.373 134.672H196.487V140.559H202.373V134.672Z" fill="#D3D3ED"/>
<path d="M192.019 134.672H186.133V140.559H192.019V134.672Z" fill="#D3D3ED"/>
<path d="M181.685 134.672H175.799V140.559H181.685V134.672Z" fill="#D3D3ED"/>
<path d="M171.351 134.672H165.465V140.559H171.351V134.672Z" fill="#D3D3ED"/>
<path d="M160.997 134.672H155.111V140.559H160.997V134.672Z" fill="#D3D3ED"/>
<path d="M150.663 134.672H144.777V140.559H150.663V134.672Z" fill="#D3D3ED"/>
<path d="M802.13 124.319H796.243V130.205H802.13V124.319Z" fill="#D3D3ED"/>
<path d="M791.795 124.319H785.909V130.205H791.795V124.319Z" fill="#D3D3ED"/>
<path d="M781.461 124.319H775.575V130.205H781.461V124.319Z" fill="#D3D3ED"/>
<path d="M771.107 124.319H765.221V130.205H771.107V124.319Z" fill="#D3D3ED"/>
<path d="M760.773 124.319H754.887V130.205H760.773V124.319Z" fill="#D3D3ED"/>
<path d="M740.085 124.319H734.199V130.205H740.085V124.319Z" fill="#D3D3ED"/>
<path d="M729.751 124.319H723.865V130.205H729.751V124.319Z" fill="#D3D3ED"/>
<path d="M719.416 124.319H713.53V130.205H719.416V124.319Z" fill="#D3D3ED"/>
<path d="M709.063 124.319H703.177V130.205H709.063V124.319Z" fill="#D3D3ED"/>
<path d="M688.394 124.319H682.508V130.205H688.394V124.319Z" fill="#D3D3ED"/>
<path d="M678.041 124.319H672.155V130.205H678.041V124.319Z" fill="#D3D3ED"/>
<path d="M667.706 124.319H661.82V130.205H667.706V124.319Z" fill="#D3D3ED"/>
<path d="M657.372 124.319H651.486V130.205H657.372V124.319Z" fill="#D3D3ED"/>
<path d="M647.018 124.319H641.132V130.205H647.018V124.319Z" fill="#D3D3ED"/>
<path d="M636.684 124.319H630.798V130.205H636.684V124.319Z" fill="#D3D3ED"/>
<path d="M626.35 124.319H620.464V130.205H626.35V124.319Z" fill="#D3D3ED"/>
<path d="M615.997 124.319H610.11V130.205H615.997V124.319Z" fill="#D3D3ED"/>
<path d="M605.662 124.319H599.776V130.205H605.662V124.319Z" fill="#D3D3ED"/>
<path d="M595.328 124.319H589.441V130.205H595.328V124.319Z" fill="#D3D3ED"/>
<path d="M584.974 124.319H579.088V130.205H584.974V124.319Z" fill="#D3D3ED"/>
<path d="M574.64 124.319H568.753V130.205H574.64V124.319Z" fill="#D3D3ED"/>
<path d="M347.131 124.319H341.245V130.205H347.131V124.319Z" fill="#D3D3ED"/>
<path d="M336.796 124.319H330.91V130.205H336.796V124.319Z" fill="#D3D3ED"/>
<path d="M326.462 124.319H320.576V130.205H326.462V124.319Z" fill="#D3D3ED"/>
<path d="M316.108 124.319H310.222V130.205H316.108V124.319Z" fill="#D3D3ED"/>
<path d="M305.774 124.319H299.888V130.205H305.774V124.319Z" fill="#D3D3ED"/>
<path d="M295.44 124.319H289.554V130.205H295.44V124.319Z" fill="#D3D3ED"/>
<path d="M285.086 124.319H279.2V130.205H285.086V124.319Z" fill="#D3D3ED"/>
<path d="M274.752 124.319H268.866V130.205H274.752V124.319Z" fill="#D3D3ED"/>
<path d="M264.417 124.319H258.531V130.205H264.417V124.319Z" fill="#D3D3ED"/>
<path d="M254.064 124.319H248.178V130.205H254.064V124.319Z" fill="#D3D3ED"/>
<path d="M243.73 124.319H237.843V130.205H243.73V124.319Z" fill="#D3D3ED"/>
<path d="M233.395 124.319H227.509V130.205H233.395V124.319Z" fill="#D3D3ED"/>
<path d="M223.042 124.319H217.156V130.205H223.042V124.319Z" fill="#D3D3ED"/>
<path d="M212.707 124.319H206.821V130.205H212.707V124.319Z" fill="#D3D3ED"/>
<path d="M202.373 124.319H196.487V130.205H202.373V124.319Z" fill="#D3D3ED"/>
<path d="M192.019 124.319H186.133V130.205H192.019V124.319Z" fill="#D3D3ED"/>
<path d="M181.685 124.319H175.799V130.205H181.685V124.319Z" fill="#D3D3ED"/>
<path d="M171.351 124.319H165.465V130.205H171.351V124.319Z" fill="#D3D3ED"/>
<path d="M160.997 124.319H155.111V130.205H160.997V124.319Z" fill="#D3D3ED"/>
<path d="M150.663 124.319H144.777V130.205H150.663V124.319Z" fill="#D3D3ED"/>
<path d="M802.13 113.965H796.243V119.851H802.13V113.965Z" fill="#D3D3ED"/>
<path d="M791.795 113.965H785.909V119.851H791.795V113.965Z" fill="#D3D3ED"/>
<path d="M781.461 113.965H775.575V119.851H781.461V113.965Z" fill="#D3D3ED"/>
<path d="M771.107 113.965H765.221V119.851H771.107V113.965Z" fill="#D3D3ED"/>
<path d="M760.773 113.965H754.887V119.851H760.773V113.965Z" fill="#D3D3ED"/>
<path d="M750.439 113.965H744.552V119.851H750.439V113.965Z" fill="#D3D3ED"/>
<path d="M740.085 113.965H734.199V119.851H740.085V113.965Z" fill="#D3D3ED"/>
<path d="M729.751 113.965H723.865V119.851H729.751V113.965Z" fill="#D3D3ED"/>
<path d="M719.416 113.965H713.53V119.851H719.416V113.965Z" fill="#D3D3ED"/>
<path d="M709.063 113.965H703.177V119.851H709.063V113.965Z" fill="#D3D3ED"/>
<path d="M698.729 113.965H692.842V119.851H698.729V113.965Z" fill="#D3D3ED"/>
<path d="M688.394 113.965H682.508V119.851H688.394V113.965Z" fill="#D3D3ED"/>
<path d="M678.041 113.965H672.155V119.851H678.041V113.965Z" fill="#D3D3ED"/>
<path d="M667.706 113.965H661.82V119.851H667.706V113.965Z" fill="#D3D3ED"/>
<path d="M657.372 113.965H651.486V119.851H657.372V113.965Z" fill="#D3D3ED"/>
<path d="M647.018 113.965H641.132V119.851H647.018V113.965Z" fill="#D3D3ED"/>
<path d="M636.684 113.965H630.798V119.851H636.684V113.965Z" fill="#D3D3ED"/>
<path d="M626.35 113.965H620.464V119.851H626.35V113.965Z" fill="#D3D3ED"/>
<path d="M615.997 113.965H610.11V119.851H615.997V113.965Z" fill="#D3D3ED"/>
<path d="M605.662 113.965H599.776V119.851H605.662V113.965Z" fill="#D3D3ED"/>
<path d="M595.328 113.965H589.441V119.851H595.328V113.965Z" fill="#D3D3ED"/>
<path d="M584.974 113.965H579.088V119.851H584.974V113.965Z" fill="#D3D3ED"/>
<path d="M378.153 113.965H372.267V119.851H378.153V113.965Z" fill="#D3D3ED"/>
<path d="M336.796 113.965H330.91V119.851H336.796V113.965Z" fill="#D3D3ED"/>
<path d="M326.462 113.965H320.576V119.851H326.462V113.965Z" fill="#D3D3ED"/>
<path d="M316.108 113.965H310.222V119.851H316.108V113.965Z" fill="#D3D3ED"/>
<path d="M305.774 113.965H299.888V119.851H305.774V113.965Z" fill="#D3D3ED"/>
<path d="M295.44 113.965H289.554V119.851H295.44V113.965Z" fill="#D3D3ED"/>
<path d="M285.086 113.965H279.2V119.851H285.086V113.965Z" fill="#D3D3ED"/>
<path d="M274.752 113.965H268.866V119.851H274.752V113.965Z" fill="#D3D3ED"/>
<path d="M264.417 113.965H258.531V119.851H264.417V113.965Z" fill="#D3D3ED"/>
<path d="M254.064 113.965H248.178V119.851H254.064V113.965Z" fill="#D3D3ED"/>
<path d="M243.73 113.965H237.843V119.851H243.73V113.965Z" fill="#D3D3ED"/>
<path d="M233.395 113.965H227.509V119.851H233.395V113.965Z" fill="#D3D3ED"/>
<path d="M223.042 113.965H217.156V119.851H223.042V113.965Z" fill="#D3D3ED"/>
<path d="M212.707 113.965H206.821V119.851H212.707V113.965Z" fill="#D3D3ED"/>
<path d="M202.373 113.965H196.487V119.851H202.373V113.965Z" fill="#D3D3ED"/>
<path d="M192.019 113.965H186.133V119.851H192.019V113.965Z" fill="#D3D3ED"/>
<path d="M181.685 113.965H175.799V119.851H181.685V113.965Z" fill="#D3D3ED"/>
<path d="M171.351 113.965H165.465V119.851H171.351V113.965Z" fill="#D3D3ED"/>
<path d="M160.997 113.965H155.111V119.851H160.997V113.965Z" fill="#D3D3ED"/>
<path d="M150.663 113.965H144.777V119.851H150.663V113.965Z" fill="#D3D3ED"/>
<path d="M802.13 103.593H796.243V109.479H802.13V103.593Z" fill="#D3D3ED"/>
<path d="M791.795 103.593H785.909V109.479H791.795V103.593Z" fill="#D3D3ED"/>
<path d="M781.461 103.593H775.575V109.479H781.461V103.593Z" fill="#D3D3ED"/>
<path d="M771.107 103.593H765.221V109.479H771.107V103.593Z" fill="#D3D3ED"/>
<path d="M760.773 103.593H754.887V109.479H760.773V103.593Z" fill="#D3D3ED"/>
<path d="M750.439 103.593H744.552V109.479H750.439V103.593Z" fill="#D3D3ED"/>
<path d="M740.085 103.593H734.199V109.479H740.085V103.593Z" fill="#D3D3ED"/>
<path d="M729.751 103.593H723.865V109.479H729.751V103.593Z" fill="#D3D3ED"/>
<path d="M719.416 103.593H713.53V109.479H719.416V103.593Z" fill="#D3D3ED"/>
<path d="M709.063 103.593H703.177V109.479H709.063V103.593Z" fill="#D3D3ED"/>
<path d="M698.729 103.593H692.842V109.479H698.729V103.593Z" fill="#D3D3ED"/>
<path d="M687 102H683C681.343 102 680 103.343 680 105V109C680 110.657 681.343 112 683 112H687C688.657 112 690 110.657 690 109V105C690 103.343 688.657 102 687 102Z" fill="url(#paint2_linear_349_979)"/>
<path d="M678.041 103.593H672.155V109.479H678.041V103.593Z" fill="#D3D3ED"/>
<path d="M667.706 103.593H661.82V109.479H667.706V103.593Z" fill="#D3D3ED"/>
<path d="M657.372 103.593H651.486V109.479H657.372V103.593Z" fill="#D3D3ED"/>
<path d="M647.018 103.593H641.132V109.479H647.018V103.593Z" fill="#D3D3ED"/>
<path d="M636.684 103.593H630.798V109.479H636.684V103.593Z" fill="#D3D3ED"/>
<path d="M626.35 103.593H620.464V109.479H626.35V103.593Z" fill="#D3D3ED"/>
<path d="M615.997 103.593H610.11V109.479H615.997V103.593Z" fill="#D3D3ED"/>
<path d="M605.662 103.593H599.776V109.479H605.662V103.593Z" fill="#D3D3ED"/>
<path d="M595.328 103.593H589.441V109.479H595.328V103.593Z" fill="#D3D3ED"/>
<path d="M574.64 103.593H568.753V109.479H574.64V103.593Z" fill="#D3D3ED"/>
<path d="M564.305 103.593H558.419V109.479H564.305V103.593Z" fill="#D3D3ED"/>
<path d="M543.617 103.593H537.731V109.479H543.617V103.593Z" fill="#D3D3ED"/>
<path d="M378.153 103.593H372.267V109.479H378.153V103.593Z" fill="#D3D3ED"/>
<path d="M367.819 103.593H361.933V109.479H367.819V103.593Z" fill="#D3D3ED"/>
<path d="M357.484 103.593H351.598V109.479H357.484V103.593Z" fill="#D3D3ED"/>
<path d="M347.131 103.593H341.245V109.479H347.131V103.593Z" fill="#D3D3ED"/>
<path d="M336.796 103.593H330.91V109.479H336.796V103.593Z" fill="#D3D3ED"/>
<path d="M326.462 103.593H320.576V109.479H326.462V103.593Z" fill="#D3D3ED"/>
<path d="M316.108 103.593H310.222V109.479H316.108V103.593Z" fill="#D3D3ED"/>
<path d="M305.774 103.593H299.888V109.479H305.774V103.593Z" fill="#D3D3ED"/>
<path d="M285.086 103.593H279.2V109.479H285.086V103.593Z" fill="#D3D3ED"/>
<path d="M274.752 103.593H268.866V109.479H274.752V103.593Z" fill="#D3D3ED"/>
<path d="M264.417 103.593H258.531V109.479H264.417V103.593Z" fill="#D3D3ED"/>
<path d="M254.064 103.593H248.178V109.479H254.064V103.593Z" fill="#D3D3ED"/>
<path d="M243.73 103.593H237.843V109.479H243.73V103.593Z" fill="#D3D3ED"/>
<path d="M223.042 103.593H217.156V109.479H223.042V103.593Z" fill="#D3D3ED"/>
<path d="M212.707 103.593H206.821V109.479H212.707V103.593Z" fill="#D3D3ED"/>
<path d="M202.373 103.593H196.487V109.479H202.373V103.593Z" fill="#D3D3ED"/>
<path d="M192.019 103.593H186.133V109.479H192.019V103.593Z" fill="#D3D3ED"/>
<path d="M181.685 103.593H175.799V109.479H181.685V103.593Z" fill="#D3D3ED"/>
<path d="M171.351 103.593H165.465V109.479H171.351V103.593Z" fill="#D3D3ED"/>
<path d="M160.997 103.593H155.111V109.479H160.997V103.593Z" fill="#D3D3ED"/>
<path d="M150.663 103.593H144.777V109.479H150.663V103.593Z" fill="#D3D3ED"/>
<path d="M140.328 103.593H134.442V109.479H140.328V103.593Z" fill="#D3D3ED"/>
<path d="M129.975 103.593H124.089V109.479H129.975V103.593Z" fill="#D3D3ED"/>
<path d="M802.13 93.2392H796.243V99.1253H802.13V93.2392Z" fill="#D3D3ED"/>
<path d="M791.795 93.2392H785.909V99.1253H791.795V93.2392Z" fill="#D3D3ED"/>
<path d="M781.461 93.2392H775.575V99.1253H781.461V93.2392Z" fill="#D3D3ED"/>
<path d="M771.107 93.2392H765.221V99.1253H771.107V93.2392Z" fill="#D3D3ED"/>
<path d="M760.773 93.2392H754.887V99.1253H760.773V93.2392Z" fill="#D3D3ED"/>
<path d="M750.439 93.2392H744.552V99.1253H750.439V93.2392Z" fill="#D3D3ED"/>
<path d="M740.085 93.2391H734.199V99.1253H740.085V93.2391Z" fill="#D3D3ED"/>
<path d="M729.751 93.2392H723.865V99.1253H729.751V93.2392Z" fill="#D3D3ED"/>
<path d="M719.416 93.2392H713.53V99.1253H719.416V93.2392Z" fill="#D3D3ED"/>
<path d="M709.063 93.2392H703.177V99.1253H709.063V93.2392Z" fill="#D3D3ED"/>
<path d="M698.729 93.2392H692.842V99.1253H698.729V93.2392Z" fill="#D3D3ED"/>
<path d="M688.394 93.2392H682.508V99.1253H688.394V93.2392Z" fill="#D3D3ED"/>
<path d="M678.041 93.2392H672.155V99.1253H678.041V93.2392Z" fill="#D3D3ED"/>
<path d="M667.706 93.2392H661.82V99.1253H667.706V93.2392Z" fill="#D3D3ED"/>
<path d="M657.372 93.2392H651.486V99.1253H657.372V93.2392Z" fill="#D3D3ED"/>
<path d="M605.662 93.2392H599.776V99.1253H605.662V93.2392Z" fill="#D3D3ED"/>
<path d="M564.305 93.2392H558.419V99.1253H564.305V93.2392Z" fill="#D3D3ED"/>
<path d="M357.484 93.2392H351.598V99.1253H357.484V93.2392Z" fill="#D3D3ED"/>
<path d="M347.131 93.2392H341.245V99.1253H347.131V93.2392Z" fill="#D3D3ED"/>
<path d="M336.796 93.2392H330.91V99.1253H336.796V93.2392Z" fill="#D3D3ED"/>
<path d="M326.462 93.2392H320.576V99.1253H326.462V93.2392Z" fill="#D3D3ED"/>
<path d="M316.108 93.2392H310.222V99.1253H316.108V93.2392Z" fill="#D3D3ED"/>
<path d="M264.417 93.2392H258.531V99.1253H264.417V93.2392Z" fill="#D3D3ED"/>
<path d="M254.064 93.2392H248.178V99.1253H254.064V93.2392Z" fill="#D3D3ED"/>
<path d="M243.73 93.2392H237.843V99.1253H243.73V93.2392Z" fill="#D3D3ED"/>
<path d="M233.395 93.2392H227.509V99.1253H233.395V93.2392Z" fill="#D3D3ED"/>
<path d="M223.042 93.2392H217.156V99.1253H223.042V93.2392Z" fill="#D3D3ED"/>
<path d="M212.707 93.2392H206.821V99.1253H212.707V93.2392Z" fill="#D3D3ED"/>
<path d="M202.373 93.2392H196.487V99.1253H202.373V93.2392Z" fill="#D3D3ED"/>
<path d="M192.019 93.2392H186.133V99.1253H192.019V93.2392Z" fill="#D3D3ED"/>
<path d="M181.685 93.2392H175.799V99.1253H181.685V93.2392Z" fill="#D3D3ED"/>
<path d="M171.351 93.2392H165.465V99.1253H171.351V93.2392Z" fill="#D3D3ED"/>
<path d="M160.997 93.2392H155.111V99.1253H160.997V93.2392Z" fill="#D3D3ED"/>
<path d="M150.663 93.2392H144.777V99.1253H150.663V93.2392Z" fill="#D3D3ED"/>
<path d="M140.328 93.2392H134.442V99.1253H140.328V93.2392Z" fill="#D3D3ED"/>
<path d="M129.975 93.2392H124.089V99.1253H129.975V93.2392Z" fill="#D3D3ED"/>
<path d="M119.641 93.2392H113.755V99.1253H119.641V93.2392Z" fill="#D3D3ED"/>
<path d="M802.13 82.8857H796.243V88.7718H802.13V82.8857Z" fill="#D3D3ED"/>
<path d="M791.795 82.8857H785.909V88.7718H791.795V82.8857Z" fill="#D3D3ED"/>
<path d="M781.461 82.8857H775.575V88.7718H781.461V82.8857Z" fill="#D3D3ED"/>
<path d="M771.107 82.8857H765.221V88.7718H771.107V82.8857Z" fill="#D3D3ED"/>
<path d="M760.773 82.8857H754.887V88.7718H760.773V82.8857Z" fill="#D3D3ED"/>
<path d="M750.439 82.8857H744.552V88.7718H750.439V82.8857Z" fill="#D3D3ED"/>
<path d="M740.085 82.8856H734.199V88.7718H740.085V82.8856Z" fill="#D3D3ED"/>
<path d="M729.751 82.8857H723.865V88.7718H729.751V82.8857Z" fill="#D3D3ED"/>
<path d="M719.416 82.8857H713.53V88.7718H719.416V82.8857Z" fill="#D3D3ED"/>
<path d="M709.063 82.8857H703.177V88.7718H709.063V82.8857Z" fill="#D3D3ED"/>
<path d="M698.729 82.8857H692.842V88.7718H698.729V82.8857Z" fill="#D3D3ED"/>
<path d="M688.394 82.8857H682.508V88.7718H688.394V82.8857Z" fill="#D3D3ED"/>
<path d="M678.041 82.8857H672.155V88.7718H678.041V82.8857Z" fill="#D3D3ED"/>
<path d="M667.706 82.8857H661.82V88.7718H667.706V82.8857Z" fill="#D3D3ED"/>
<path d="M657.372 82.8857H651.486V88.7718H657.372V82.8857Z" fill="#D3D3ED"/>
<path d="M626.35 82.8856H620.464V88.7718H626.35V82.8856Z" fill="#D3D3ED"/>
<path d="M615.997 82.8856H610.11V88.7718H615.997V82.8856Z" fill="#D3D3ED"/>
<path d="M347.131 82.8857H341.245V88.7718H347.131V82.8857Z" fill="#D3D3ED"/>
<path d="M336.796 82.8857H330.91V88.7718H336.796V82.8857Z" fill="#D3D3ED"/>
<path d="M326.462 82.8857H320.576V88.7718H326.462V82.8857Z" fill="#D3D3ED"/>
<path d="M316.108 82.8857H310.222V88.7718H316.108V82.8857Z" fill="#D3D3ED"/>
<path d="M243.73 82.8857H237.843V88.7718H243.73V82.8857Z" fill="#D3D3ED"/>
<path d="M233.395 82.8857H227.509V88.7718H233.395V82.8857Z" fill="#D3D3ED"/>
<path d="M223.042 82.8857H217.156V88.7718H223.042V82.8857Z" fill="#D3D3ED"/>
<path d="M212.707 82.8857H206.821V88.7718H212.707V82.8857Z" fill="#D3D3ED"/>
<path d="M202.373 82.8857H196.487V88.7718H202.373V82.8857Z" fill="#D3D3ED"/>
<path d="M192.019 82.8857H186.133V88.7718H192.019V82.8857Z" fill="#D3D3ED"/>
<path d="M181.685 82.8857H175.799V88.7718H181.685V82.8857Z" fill="#D3D3ED"/>
<path d="M171.351 82.8857H165.465V88.7718H171.351V82.8857Z" fill="#D3D3ED"/>
<path d="M160.997 82.8857H155.111V88.7718H160.997V82.8857Z" fill="#D3D3ED"/>
<path d="M150.663 82.8857H144.777V88.7718H150.663V82.8857Z" fill="#D3D3ED"/>
<path d="M140.328 82.8857H134.442V88.7718H140.328V82.8857Z" fill="#D3D3ED"/>
<path d="M129.975 82.8857H124.089V88.7718H129.975V82.8857Z" fill="#D3D3ED"/>
<path d="M119.641 82.8857H113.755V88.7718H119.641V82.8857Z" fill="#D3D3ED"/>
<path d="M109.287 82.8857H103.401V88.7718H109.287V82.8857Z" fill="#D3D3ED"/>
<path d="M36.9084 82.8857H31.0222V88.7718H36.9084V82.8857Z" fill="#D3D3ED"/>
<path d="M802.13 72.5129H796.243V78.3991H802.13V72.5129Z" fill="#D3D3ED"/>
<path d="M791.795 72.5129H785.909V78.3991H791.795V72.5129Z" fill="#D3D3ED"/>
<path d="M781.461 72.5129H775.575V78.3991H781.461V72.5129Z" fill="#D3D3ED"/>
<path d="M771.107 72.5129H765.221V78.3991H771.107V72.5129Z" fill="#D3D3ED"/>
<path d="M760.773 72.5129H754.887V78.3991H760.773V72.5129Z" fill="#D3D3ED"/>
<path d="M750.439 72.5129H744.552V78.3991H750.439V72.5129Z" fill="#D3D3ED"/>
<path d="M740.085 72.5128H734.199V78.399H740.085V72.5128Z" fill="#D3D3ED"/>
<path d="M729.751 72.5129H723.865V78.3991H729.751V72.5129Z" fill="#D3D3ED"/>
<path d="M719.416 72.5129H713.53V78.3991H719.416V72.5129Z" fill="#D3D3ED"/>
<path d="M709.063 72.5129H703.177V78.3991H709.063V72.5129Z" fill="#D3D3ED"/>
<path d="M698.729 72.5129H692.842V78.3991H698.729V72.5129Z" fill="#D3D3ED"/>
<path d="M688.394 72.5129H682.508V78.3991H688.394V72.5129Z" fill="#D3D3ED"/>
<path d="M678.041 72.5129H672.155V78.3991H678.041V72.5129Z" fill="#D3D3ED"/>
<path d="M667.706 72.5129H661.82V78.3991H667.706V72.5129Z" fill="#D3D3ED"/>
<path d="M657.372 72.5129H651.486V78.3991H657.372V72.5129Z" fill="#D3D3ED"/>
<path d="M626.35 72.5128H620.464V78.399H626.35V72.5128Z" fill="#D3D3ED"/>
<path d="M615.997 72.5128H610.11V78.399H615.997V72.5128Z" fill="#D3D3ED"/>
<path d="M605.662 72.5129H599.776V78.3991H605.662V72.5129Z" fill="#D3D3ED"/>
<path d="M595.328 72.5129H589.441V78.3991H595.328V72.5129Z" fill="#D3D3ED"/>
<path d="M419.528 72.5129H413.642V78.3991H419.528V72.5129Z" fill="#D3D3ED"/>
<path d="M409.175 72.5129H403.289V78.3991H409.175V72.5129Z" fill="#D3D3ED"/>
<path d="M316.108 72.5129H310.222V78.3991H316.108V72.5129Z" fill="#D3D3ED"/>
<path d="M305.774 72.5129H299.888V78.3991H305.774V72.5129Z" fill="#D3D3ED"/>
<path d="M243.73 72.5129H237.843V78.3991H243.73V72.5129Z" fill="#D3D3ED"/>
<path d="M233.395 72.5129H227.509V78.3991H233.395V72.5129Z" fill="#D3D3ED"/>
<path d="M223.042 72.5129H217.156V78.3991H223.042V72.5129Z" fill="#D3D3ED"/>
<path d="M212.707 72.5129H206.821V78.3991H212.707V72.5129Z" fill="#D3D3ED"/>
<path d="M202.373 72.5129H196.487V78.3991H202.373V72.5129Z" fill="#D3D3ED"/>
<path d="M192.019 72.5129H186.133V78.3991H192.019V72.5129Z" fill="#D3D3ED"/>
<path d="M160.997 72.5129H155.111V78.3991H160.997V72.5129Z" fill="#D3D3ED"/>
<path d="M150.663 72.5129H144.777V78.3991H150.663V72.5129Z" fill="#D3D3ED"/>
<path d="M140.328 72.5129H134.442V78.3991H140.328V72.5129Z" fill="#D3D3ED"/>
<path d="M129.975 72.5129H124.089V78.3991H129.975V72.5129Z" fill="#D3D3ED"/>
<path d="M119.641 72.5129H113.755V78.3991H119.641V72.5129Z" fill="#D3D3ED"/>
<path d="M109.287 72.5129H103.401V78.3991H109.287V72.5129Z" fill="#D3D3ED"/>
<path d="M98.9529 72.5129H93.0667V78.3991H98.9529V72.5129Z" fill="#D3D3ED"/>
<path d="M88.6185 72.5129H82.7324V78.3991H88.6185V72.5129Z" fill="#D3D3ED"/>
<path d="M78.265 72.5129H72.3788V78.3991H78.265V72.5129Z" fill="#D3D3ED"/>
<path d="M67.9307 72.5129H62.0445V78.3991H67.9307V72.5129Z" fill="#D3D3ED"/>
<path d="M57.5963 72.5129H51.7101V78.3991H57.5963V72.5129Z" fill="#D3D3ED"/>
<path d="M47.2428 72.5129H41.3566V78.3991H47.2428V72.5129Z" fill="#D3D3ED"/>
<path d="M36.9084 72.5129H31.0222V78.3991H36.9084V72.5129Z" fill="#D3D3ED"/>
<path d="M26.5741 72.5129H20.6879V78.3991H26.5741V72.5129Z" fill="#D3D3ED"/>
<path d="M16.2205 72.5129H10.3344V78.3991H16.2205V72.5129Z" fill="#D3D3ED"/>
<path d="M5.88617 72.5129H0V78.3991H5.88617V72.5129Z" fill="#D3D3ED"/>
<path d="M802.13 62.1595H796.243V68.0457H802.13V62.1595Z" fill="#D3D3ED"/>
<path d="M791.795 62.1595H785.909V68.0457H791.795V62.1595Z" fill="#D3D3ED"/>
<path d="M781.461 62.1595H775.575V68.0457H781.461V62.1595Z" fill="#D3D3ED"/>
<path d="M771.107 62.1595H765.221V68.0457H771.107V62.1595Z" fill="#D3D3ED"/>
<path d="M760.773 62.1595H754.887V68.0457H760.773V62.1595Z" fill="#D3D3ED"/>
<path d="M750.439 62.1595H744.552V68.0457H750.439V62.1595Z" fill="#D3D3ED"/>
<path d="M740.085 62.1595H734.199V68.0457H740.085V62.1595Z" fill="#D3D3ED"/>
<path d="M729.751 62.1595H723.865V68.0457H729.751V62.1595Z" fill="#D3D3ED"/>
<path d="M719.416 62.1595H713.53V68.0457H719.416V62.1595Z" fill="#D3D3ED"/>
<path d="M688.394 62.1595H682.508V68.0457H688.394V62.1595Z" fill="#D3D3ED"/>
<path d="M678.041 62.1595H672.155V68.0457H678.041V62.1595Z" fill="#D3D3ED"/>
<path d="M667.706 62.1595H661.82V68.0457H667.706V62.1595Z" fill="#D3D3ED"/>
<path d="M647.018 62.1595H641.132V68.0457H647.018V62.1595Z" fill="#D3D3ED"/>
<path d="M636.684 62.1595H630.798V68.0457H636.684V62.1595Z" fill="#D3D3ED"/>
<path d="M626.35 62.1595H620.464V68.0457H626.35V62.1595Z" fill="#D3D3ED"/>
<path d="M615.997 62.1595H610.11V68.0457H615.997V62.1595Z" fill="#D3D3ED"/>
<path d="M522.93 62.1595H517.043V68.0457H522.93V62.1595Z" fill="#D3D3ED"/>
<path d="M512.595 62.1595H506.709V68.0457H512.595V62.1595Z" fill="#D3D3ED"/>
<path d="M502.261 62.1595H496.375V68.0457H502.261V62.1595Z" fill="#D3D3ED"/>
<path d="M429.863 62.1595H423.977V68.0457H429.863V62.1595Z" fill="#D3D3ED"/>
<path d="M419.528 62.1595H413.642V68.0457H419.528V62.1595Z" fill="#D3D3ED"/>
<path d="M409.175 62.1595H403.289V68.0457H409.175V62.1595Z" fill="#D3D3ED"/>
<path d="M398.841 62.1595H392.955V68.0457H398.841V62.1595Z" fill="#D3D3ED"/>
<path d="M336.796 62.1595H330.91V68.0457H336.796V62.1595Z" fill="#D3D3ED"/>
<path d="M326.462 62.1595H320.576V68.0457H326.462V62.1595Z" fill="#D3D3ED"/>
<path d="M316.108 62.1595H310.222V68.0457H316.108V62.1595Z" fill="#D3D3ED"/>
<path d="M305.774 62.1595H299.888V68.0457H305.774V62.1595Z" fill="#D3D3ED"/>
<path d="M264.417 62.1595H258.531V68.0457H264.417V62.1595Z" fill="#D3D3ED"/>
<path d="M254.064 62.1595H248.178V68.0457H254.064V62.1595Z" fill="#D3D3ED"/>
<path d="M243.73 62.1595H237.843V68.0457H243.73V62.1595Z" fill="#D3D3ED"/>
<path d="M233.395 62.1595H227.509V68.0457H233.395V62.1595Z" fill="#D3D3ED"/>
<path d="M223.042 62.1595H217.156V68.0457H223.042V62.1595Z" fill="#D3D3ED"/>
<path d="M212.707 62.1595H206.821V68.0457H212.707V62.1595Z" fill="#D3D3ED"/>
<path d="M202.373 62.1595H196.487V68.0457H202.373V62.1595Z" fill="#D3D3ED"/>
<path d="M192.019 62.1595H186.133V68.0457H192.019V62.1595Z" fill="#D3D3ED"/>
<path d="M181.685 62.1595H175.799V68.0457H181.685V62.1595Z" fill="#D3D3ED"/>
<path d="M171.351 62.1595H165.465V68.0457H171.351V62.1595Z" fill="#D3D3ED"/>
<path d="M160.997 62.1595H155.111V68.0457H160.997V62.1595Z" fill="#D3D3ED"/>
<path d="M140.328 62.1595H134.442V68.0457H140.328V62.1595Z" fill="#D3D3ED"/>
<path d="M129.975 62.1595H124.089V68.0457H129.975V62.1595Z" fill="#D3D3ED"/>
<path d="M119.641 62.1595H113.755V68.0457H119.641V62.1595Z" fill="#D3D3ED"/>
<path d="M109.287 62.1595H103.401V68.0457H109.287V62.1595Z" fill="#D3D3ED"/>
<path d="M98.9529 62.1595H93.0667V68.0457H98.9529V62.1595Z" fill="#D3D3ED"/>
<path d="M88.6185 62.1595H82.7324V68.0457H88.6185V62.1595Z" fill="#D3D3ED"/>
<path d="M78.265 62.1595H72.3788V68.0457H78.265V62.1595Z" fill="#D3D3ED"/>
<path d="M67.9307 62.1595H62.0445V68.0457H67.9307V62.1595Z" fill="#D3D3ED"/>
<path d="M57.5963 62.1595H51.7101V68.0457H57.5963V62.1595Z" fill="#D3D3ED"/>
<path d="M47.2428 62.1595H41.3566V68.0457H47.2428V62.1595Z" fill="#D3D3ED"/>
<path d="M36.9084 62.1595H31.0222V68.0457H36.9084V62.1595Z" fill="#D3D3ED"/>
<path d="M26.5741 62.1595H20.6879V68.0457H26.5741V62.1595Z" fill="#D3D3ED"/>
<path d="M5.88617 62.1595H0V68.0457H5.88617V62.1595Z" fill="#D3D3ED"/>
<path d="M802.13 51.8059H796.243V57.6921H802.13V51.8059Z" fill="#D3D3ED"/>
<path d="M791.795 51.8059H785.909V57.6921H791.795V51.8059Z" fill="#D3D3ED"/>
<path d="M781.461 51.8059H775.575V57.6921H781.461V51.8059Z" fill="#D3D3ED"/>
<path d="M771.107 51.8059H765.221V57.6921H771.107V51.8059Z" fill="#D3D3ED"/>
<path d="M760.773 51.8059H754.887V57.6921H760.773V51.8059Z" fill="#D3D3ED"/>
<path d="M750.439 51.8059H744.552V57.6921H750.439V51.8059Z" fill="#D3D3ED"/>
<path d="M729.751 51.8059H723.865V57.6921H729.751V51.8059Z" fill="#D3D3ED"/>
<path d="M709.063 51.8059H703.177V57.6921H709.063V51.8059Z" fill="#D3D3ED"/>
<path d="M698.729 51.8059H692.842V57.6921H698.729V51.8059Z" fill="#D3D3ED"/>
<path d="M688.394 51.8059H682.508V57.6921H688.394V51.8059Z" fill="#D3D3ED"/>
<path d="M678.041 51.8059H672.155V57.6921H678.041V51.8059Z" fill="#D3D3ED"/>
<path d="M667.706 51.8059H661.82V57.6921H667.706V51.8059Z" fill="#D3D3ED"/>
<path d="M657.372 51.8059H651.486V57.6921H657.372V51.8059Z" fill="#D3D3ED"/>
<path d="M647.018 51.8059H641.132V57.6921H647.018V51.8059Z" fill="#D3D3ED"/>
<path d="M636.684 51.8059H630.798V57.6921H636.684V51.8059Z" fill="#D3D3ED"/>
<path d="M460.885 51.8059H454.999V57.6921H460.885V51.8059Z" fill="#D3D3ED"/>
<path d="M450.551 51.8059H444.665V57.6921H450.551V51.8059Z" fill="#D3D3ED"/>
<path d="M440.197 51.8059H434.311V57.6921H440.197V51.8059Z" fill="#D3D3ED"/>
<path d="M429.863 51.8059H423.977V57.6921H429.863V51.8059Z" fill="#D3D3ED"/>
<path d="M419.528 51.8059H413.642V57.6921H419.528V51.8059Z" fill="#D3D3ED"/>
<path d="M409.175 51.8059H403.289V57.6921H409.175V51.8059Z" fill="#D3D3ED"/>
<path d="M398.841 51.8059H392.955V57.6921H398.841V51.8059Z" fill="#D3D3ED"/>
<path d="M336.796 51.8059H330.91V57.6921H336.796V51.8059Z" fill="#D3D3ED"/>
<path d="M326.462 51.8059H320.576V57.6921H326.462V51.8059Z" fill="#D3D3ED"/>
<path d="M316.108 51.8059H310.222V57.6921H316.108V51.8059Z" fill="#D3D3ED"/>
<path d="M285.086 51.8059H279.2V57.6921H285.086V51.8059Z" fill="#D3D3ED"/>
<path d="M264.417 51.8059H258.531V57.6921H264.417V51.8059Z" fill="#D3D3ED"/>
<path d="M254.064 51.8059H248.178V57.6921H254.064V51.8059Z" fill="#D3D3ED"/>
<path d="M233.395 51.8059H227.509V57.6921H233.395V51.8059Z" fill="#D3D3ED"/>
<path d="M202.373 51.8059H196.487V57.6921H202.373V51.8059Z" fill="#D3D3ED"/>
<path d="M171.351 51.8059H165.465V57.6921H171.351V51.8059Z" fill="#D3D3ED"/>
<path d="M160.997 51.8059H155.111V57.6921H160.997V51.8059Z" fill="#D3D3ED"/>
<path d="M150.663 51.8059H144.777V57.6921H150.663V51.8059Z" fill="#D3D3ED"/>
<path d="M140.328 51.8059H134.442V57.6921H140.328V51.8059Z" fill="#D3D3ED"/>
<path d="M129.975 51.8059H124.089V57.6921H129.975V51.8059Z" fill="#D3D3ED"/>
<path d="M119.641 51.8059H113.755V57.6921H119.641V51.8059Z" fill="#D3D3ED"/>
<path d="M109.287 51.8059H103.401V57.6921H109.287V51.8059Z" fill="#D3D3ED"/>
<path d="M98.9529 51.8059H93.0667V57.6921H98.9529V51.8059Z" fill="#D3D3ED"/>
<path d="M88.6185 51.8059H82.7324V57.6921H88.6185V51.8059Z" fill="#D3D3ED"/>
<path d="M78.265 51.8059H72.3788V57.6921H78.265V51.8059Z" fill="#D3D3ED"/>
<path d="M67.9307 51.8059H62.0445V57.6921H67.9307V51.8059Z" fill="#D3D3ED"/>
<path d="M57.5963 51.8059H51.7101V57.6921H57.5963V51.8059Z" fill="#D3D3ED"/>
<path d="M47.2428 51.8059H41.3566V57.6921H47.2428V51.8059Z" fill="#D3D3ED"/>
<path d="M36.9084 51.8059H31.0222V57.6921H36.9084V51.8059Z" fill="#D3D3ED"/>
<path d="M26.5741 51.8059H20.6879V57.6921H26.5741V51.8059Z" fill="#D3D3ED"/>
<path d="M16.2205 51.8059H10.3344V57.6921H16.2205V51.8059Z" fill="#D3D3ED"/>
<path d="M5.88617 51.8059H0V57.6921H5.88617V51.8059Z" fill="#D3D3ED"/>
<path d="M678.041 41.4332H672.155V47.3193H678.041V41.4332Z" fill="#D3D3ED"/>
<path d="M667.706 41.4332H661.82V47.3193H667.706V41.4332Z" fill="#D3D3ED"/>
<path d="M657.372 41.4332H651.486V47.3193H657.372V41.4332Z" fill="#D3D3ED"/>
<path d="M491.907 41.4332H486.021V47.3193H491.907V41.4332Z" fill="#D3D3ED"/>
<path d="M481.573 41.4331H475.687V47.3193H481.573V41.4331Z" fill="#D3D3ED"/>
<path d="M471.22 41.4332H465.333V47.3193H471.22V41.4332Z" fill="#D3D3ED"/>
<path d="M460.885 41.4332H454.999V47.3193H460.885V41.4332Z" fill="#D3D3ED"/>
<path d="M450.551 41.4332H444.665V47.3193H450.551V41.4332Z" fill="#D3D3ED"/>
<path d="M440.197 41.4332H434.311V47.3193H440.197V41.4332Z" fill="#D3D3ED"/>
<path d="M429.863 41.4332H423.977V47.3193H429.863V41.4332Z" fill="#D3D3ED"/>
<path d="M419.528 41.4332H413.642V47.3193H419.528V41.4332Z" fill="#D3D3ED"/>
<path d="M409.175 41.4332H403.289V47.3193H409.175V41.4332Z" fill="#D3D3ED"/>
<path d="M398.841 41.4332H392.955V47.3193H398.841V41.4332Z" fill="#D3D3ED"/>
<path d="M388.506 41.4332H382.62V47.3193H388.506V41.4332Z" fill="#D3D3ED"/>
<path d="M336.796 41.4332H330.91V47.3193H336.796V41.4332Z" fill="#D3D3ED"/>
<path d="M326.462 41.4332H320.576V47.3193H326.462V41.4332Z" fill="#D3D3ED"/>
<path d="M316.108 41.4332H310.222V47.3193H316.108V41.4332Z" fill="#D3D3ED"/>
<path d="M305.774 41.4332H299.888V47.3193H305.774V41.4332Z" fill="#D3D3ED"/>
<path d="M295.44 41.4332H289.554V47.3193H295.44V41.4332Z" fill="#D3D3ED"/>
<path d="M285.086 41.4332H279.2V47.3193H285.086V41.4332Z" fill="#D3D3ED"/>
<path d="M243.73 41.4332H237.843V47.3193H243.73V41.4332Z" fill="#D3D3ED"/>
<path d="M212.707 41.4332H206.821V47.3193H212.707V41.4332Z" fill="#D3D3ED"/>
<path d="M202.373 41.4332H196.487V47.3193H202.373V41.4332Z" fill="#D3D3ED"/>
<path d="M192.019 41.4332H186.133V47.3193H192.019V41.4332Z" fill="#D3D3ED"/>
<path d="M181.685 41.4332H175.799V47.3193H181.685V41.4332Z" fill="#D3D3ED"/>
<path d="M171.351 41.4332H165.465V47.3193H171.351V41.4332Z" fill="#D3D3ED"/>
<path d="M129.975 41.4332H124.089V47.3193H129.975V41.4332Z" fill="#D3D3ED"/>
<path d="M47.2428 41.4332H41.3566V47.3193H47.2428V41.4332Z" fill="#D3D3ED"/>
<path d="M36.9084 41.4332H31.0222V47.3193H36.9084V41.4332Z" fill="#D3D3ED"/>
<path d="M26.5741 41.4332H20.6879V47.3193H26.5741V41.4332Z" fill="#D3D3ED"/>
<path d="M760.773 31.0797H754.887V36.9658H760.773V31.0797Z" fill="#D3D3ED"/>
<path d="M491.907 31.0797H486.021V36.9658H491.907V31.0797Z" fill="#D3D3ED"/>
<path d="M481.573 31.0796H475.687V36.9658H481.573V31.0796Z" fill="#D3D3ED"/>
<path d="M471.22 31.0797H465.333V36.9658H471.22V31.0797Z" fill="#D3D3ED"/>
<path d="M460.885 31.0797H454.999V36.9658H460.885V31.0797Z" fill="#D3D3ED"/>
<path d="M450.551 31.0797H444.665V36.9658H450.551V31.0797Z" fill="#D3D3ED"/>
<path d="M440.197 31.0797H434.311V36.9658H440.197V31.0797Z" fill="#D3D3ED"/>
<path d="M429.863 31.0797H423.977V36.9658H429.863V31.0797Z" fill="#D3D3ED"/>
<path d="M419.528 31.0797H413.642V36.9658H419.528V31.0797Z" fill="#D3D3ED"/>
<path d="M409.175 31.0797H403.289V36.9658H409.175V31.0797Z" fill="#D3D3ED"/>
<path d="M398.841 31.0797H392.955V36.9658H398.841V31.0797Z" fill="#D3D3ED"/>
<path d="M388.506 31.0797H382.62V36.9658H388.506V31.0797Z" fill="#D3D3ED"/>
<path d="M274.752 31.0797H268.866V36.9658H274.752V31.0797Z" fill="#D3D3ED"/>
<path d="M254.064 31.0797H248.178V36.9658H254.064V31.0797Z" fill="#D3D3ED"/>
<path d="M243.73 31.0797H237.843V36.9658H243.73V31.0797Z" fill="#D3D3ED"/>
<path d="M233.395 31.0797H227.509V36.9658H233.395V31.0797Z" fill="#D3D3ED"/>
<path d="M160.997 31.0797H155.111V36.9658H160.997V31.0797Z" fill="#D3D3ED"/>
<path d="M150.663 31.0797H144.777V36.9658H150.663V31.0797Z" fill="#D3D3ED"/>
<path d="M502.261 20.707H496.375V26.5932H502.261V20.707Z" fill="#D3D3ED"/>
<path d="M491.907 20.707H486.021V26.5932H491.907V20.707Z" fill="#D3D3ED"/>
<path d="M481.573 20.707H475.687V26.5932H481.573V20.707Z" fill="#D3D3ED"/>
<path d="M471.22 20.707H465.333V26.5932H471.22V20.707Z" fill="#D3D3ED"/>
<path d="M460.885 20.707H454.999V26.5932H460.885V20.707Z" fill="#D3D3ED"/>
<path d="M450.551 20.707H444.665V26.5932H450.551V20.707Z" fill="#D3D3ED"/>
<path d="M440.197 20.707H434.311V26.5932H440.197V20.707Z" fill="#D3D3ED"/>
<path d="M429.863 20.707H423.977V26.5932H429.863V20.707Z" fill="#D3D3ED"/>
<path d="M419.528 20.707H413.642V26.5932H419.528V20.707Z" fill="#D3D3ED"/>
<path d="M409.175 20.707H403.289V26.5932H409.175V20.707Z" fill="#D3D3ED"/>
<path d="M398.841 20.707H392.955V26.5932H398.841V20.707Z" fill="#D3D3ED"/>
<path d="M388.506 20.707H382.62V26.5932H388.506V20.707Z" fill="#D3D3ED"/>
<path d="M378.153 20.707H372.267V26.5932H378.153V20.707Z" fill="#D3D3ED"/>
<path d="M367.819 20.707H361.933V26.5932H367.819V20.707Z" fill="#D3D3ED"/>
<path d="M357.484 20.707H351.598V26.5932H357.484V20.707Z" fill="#D3D3ED"/>
<path d="M347.131 20.707H341.245V26.5932H347.131V20.707Z" fill="#D3D3ED"/>
<path d="M336.796 20.707H330.91V26.5932H336.796V20.707Z" fill="#D3D3ED"/>
<path d="M295.44 20.707H289.554V26.5932H295.44V20.707Z" fill="#D3D3ED"/>
<path d="M285.086 20.707H279.2V26.5932H285.086V20.707Z" fill="#D3D3ED"/>
<path d="M274.752 20.707H268.866V26.5932H274.752V20.707Z" fill="#D3D3ED"/>
<path d="M264.417 20.707H258.531V26.5932H264.417V20.707Z" fill="#D3D3ED"/>
<path d="M160.997 20.707H155.111V26.5932H160.997V20.707Z" fill="#D3D3ED"/>
<path d="M647.018 10.3535H641.132V16.2397H647.018V10.3535Z" fill="#D3D3ED"/>
<path d="M636.684 10.3535H630.798V16.2397H636.684V10.3535Z" fill="#D3D3ED"/>
<path d="M626.35 10.3535H620.464V16.2397H626.35V10.3535Z" fill="#D3D3ED"/>
<path d="M615.997 10.3535H610.11V16.2397H615.997V10.3535Z" fill="#D3D3ED"/>
<path d="M502.261 10.3535H496.375V16.2397H502.261V10.3535Z" fill="#D3D3ED"/>
<path d="M491.907 10.3535H486.021V16.2397H491.907V10.3535Z" fill="#D3D3ED"/>
<path d="M481.573 10.3535H475.687V16.2397H481.573V10.3535Z" fill="#D3D3ED"/>
<path d="M471.22 10.3535H465.333V16.2397H471.22V10.3535Z" fill="#D3D3ED"/>
<path d="M460.885 10.3535H454.999V16.2397H460.885V10.3535Z" fill="#D3D3ED"/>
<path d="M450.551 10.3535H444.665V16.2397H450.551V10.3535Z" fill="#D3D3ED"/>
<path d="M440.197 10.3535H434.311V16.2397H440.197V10.3535Z" fill="#D3D3ED"/>
<path d="M429.863 10.3535H423.977V16.2397H429.863V10.3535Z" fill="#D3D3ED"/>
<path d="M419.528 10.3535H413.642V16.2397H419.528V10.3535Z" fill="#D3D3ED"/>
<path d="M409.175 10.3535H403.289V16.2397H409.175V10.3535Z" fill="#D3D3ED"/>
<path d="M398.841 10.3535H392.955V16.2397H398.841V10.3535Z" fill="#D3D3ED"/>
<path d="M388.506 10.3535H382.62V16.2397H388.506V10.3535Z" fill="#D3D3ED"/>
<path d="M378.153 10.3535H372.267V16.2397H378.153V10.3535Z" fill="#D3D3ED"/>
<path d="M367.819 10.3535H361.933V16.2397H367.819V10.3535Z" fill="#D3D3ED"/>
<path d="M357.484 10.3535H351.598V16.2397H357.484V10.3535Z" fill="#D3D3ED"/>
<path d="M347.131 10.3535H341.245V16.2397H347.131V10.3535Z" fill="#D3D3ED"/>
<path d="M305.774 10.3535H299.888V16.2397H305.774V10.3535Z" fill="#D3D3ED"/>
<path d="M295.44 10.3535H289.554V16.2397H295.44V10.3535Z" fill="#D3D3ED"/>
<path d="M285.086 10.3535H279.2V16.2397H285.086V10.3535Z" fill="#D3D3ED"/>
<path d="M274.752 10.3535H268.866V16.2397H274.752V10.3535Z" fill="#D3D3ED"/>
<path d="M264.417 10.3535H258.531V16.2397H264.417V10.3535Z" fill="#D3D3ED"/>
<path d="M254.064 10.3535H248.178V16.2397H254.064V10.3535Z" fill="#D3D3ED"/>
<path d="M212.707 10.3535H206.821V16.2397H212.707V10.3535Z" fill="#D3D3ED"/>
<path d="M491.907 0H486.021V5.88615H491.907V0Z" fill="#D3D3ED"/>
<path d="M481.573 0H475.687V5.88615H481.573V0Z" fill="#D3D3ED"/>
<path d="M471.22 0H465.333V5.88615H471.22V0Z" fill="#D3D3ED"/>
<path d="M460.885 0H454.999V5.88615H460.885V0Z" fill="#D3D3ED"/>
<path d="M450.551 0H444.665V5.88615H450.551V0Z" fill="#D3D3ED"/>
<path d="M440.197 0H434.311V5.88615H440.197V0Z" fill="#D3D3ED"/>
<path d="M429.863 0H423.977V5.88615H429.863V0Z" fill="#D3D3ED"/>
<path d="M419.528 0H413.642V5.88615H419.528V0Z" fill="#D3D3ED"/>
<path d="M409.175 0H403.289V5.88615H409.175V0Z" fill="#D3D3ED"/>
<path d="M347.131 0H341.245V5.88615H347.131V0Z" fill="#D3D3ED"/>
<path d="M336.796 0H330.91V5.88615H336.796V0Z" fill="#D3D3ED"/>
<path d="M326.462 0H320.576V5.88615H326.462V0Z" fill="#D3D3ED"/>
<path d="M316.108 0H310.222V5.88615H316.108V0Z" fill="#D3D3ED"/>
<path d="M305.774 0H299.888V5.88615H305.774V0Z" fill="#D3D3ED"/>
<path d="M295.44 0H289.554V5.88615H295.44V0Z" fill="#D3D3ED"/>
<path d="M285.086 0H279.2V5.88615H285.086V0Z" fill="#D3D3ED"/>
<defs>
<linearGradient id="paint0_linear_349_979" x1="299.553" y1="196.851" x2="287.585" y2="200.653" gradientUnits="userSpaceOnUse">
<stop stop-color="#8E2DE2"/>
<stop offset="1" stop-color="#4A00E0"/>
</linearGradient>
<linearGradient id="paint1_linear_349_979" x1="587" y1="133" x2="575.031" y2="136.802" gradientUnits="userSpaceOnUse">
<stop stop-color="#8E2DE2"/>
<stop offset="1" stop-color="#4A00E0"/>
</linearGradient>
<linearGradient id="paint2_linear_349_979" x1="690" y1="102" x2="678.031" y2="105.802" gradientUnits="userSpaceOnUse">
<stop stop-color="#8E2DE2"/>
<stop offset="1" stop-color="#4A00E0"/>
</linearGradient>
</defs>
</svg>
